<svg width="20" height="20" viewBox="0 0 20 20" fill="none" xmlns="http://www.w3.org/2000/svg">
<path d="M2.92663 17.0688C1.29126 15.4323 0.273887 13.2795 0.0478564 10.977C-0.178174 8.67455 0.40112 6.36495 1.68704 4.44173C2.97295 2.5185 4.88593 1.10064 7.10003 0.429727C9.31413 -0.241187 11.6924 -0.123646 13.8295 0.762323C15.9667 1.64829 17.7305 3.24787 18.8205 5.28853C19.9105 7.32918 20.2593 9.68464 19.8073 11.9536C19.3553 14.2225 18.1306 16.2646 16.3419 17.7318C14.5531 19.199 12.311 20.0006 9.99745 20C8.68411 19.9997 7.3837 19.7406 6.17048 19.2377C4.95726 18.7347 3.85499 17.9977 2.92663 17.0688ZM4.25371 4.25625C2.92199 5.5854 2.09243 7.33524 1.90641 9.20754C1.72039 11.0798 2.18942 12.9587 3.23357 14.5239C4.27772 16.0891 5.83235 17.2438 7.6325 17.7911C9.43265 18.3384 11.3669 18.2445 13.1056 17.5254C14.8442 16.8063 16.2797 15.5065 17.1673 13.8475C18.055 12.1885 18.3398 10.273 17.9733 8.42756C17.6068 6.58208 16.6116 4.92082 15.1574 3.72692C13.7032 2.53302 11.88 1.88037 9.99849 1.88021C7.84493 1.87943 5.77896 2.73279 4.25371 4.25313V4.25625ZM8.59016 14.5469V9.54688C8.60975 9.18715 8.76644 8.84861 9.02802 8.60089C9.28959 8.35318 9.63615 8.21512 9.99641 8.21512C10.3567 8.21512 10.7032 8.35318 10.9648 8.60089C11.2264 8.84861 11.3831 9.18715 11.4027 9.54688V14.5469C11.3831 14.9066 11.2264 15.2451 10.9648 15.4929C10.7032 15.7406 10.3567 15.8786 9.99641 15.8786C9.63615 15.8786 9.28959 15.7406 9.02802 15.4929C8.76644 15.2451 8.60975 14.9066 8.59016 14.5469ZM8.60787 5.48438C8.61443 5.21085 8.70152 4.94534 8.85826 4.72108C9.015 4.49682 9.2344 4.32378 9.48901 4.22362C9.74362 4.12346 10.0221 4.10063 10.2896 4.15799C10.5572 4.21535 10.8018 4.35036 10.993 4.5461C11.1841 4.74185 11.3133 4.98963 11.3643 5.25844C11.4153 5.52724 11.3859 5.80513 11.2798 6.05729C11.1736 6.30946 10.9954 6.52471 10.7675 6.67609C10.5396 6.82747 10.2721 6.90826 9.99849 6.90833C9.81346 6.9063 9.63065 6.86776 9.46054 6.79494C9.29044 6.72212 9.13637 6.61644 9.00718 6.48396C8.878 6.35148 8.77622 6.19481 8.7077 6.02292C8.63918 5.85104 8.60525 5.66732 8.60787 5.48229V5.48438Z" fill="white"/>
</svg>
