<svg width="26" height="36" viewBox="0 0 26 36" fill="none" xmlns="http://www.w3.org/2000/svg">
<path d="M20.4286 0C18.9509 0 17.5338 0.568927 16.489 1.58162C15.4441 2.59432 14.8571 3.96783 14.8571 5.4V30.6C14.8571 32.0322 15.4441 33.4057 16.489 34.4184C17.5338 35.4311 18.9509 36 20.4286 36C21.9062 36 23.3233 35.4311 24.3682 34.4184C25.413 33.4057 26 32.0322 26 30.6V5.4C26 3.96783 25.413 2.59432 24.3682 1.58162C23.3233 0.568927 21.9062 0 20.4286 0ZM22.2857 30.6C22.2857 31.0774 22.0901 31.5352 21.7418 31.8728C21.3935 32.2104 20.9211 32.4 20.4286 32.4C19.936 32.4 19.4637 32.2104 19.1154 31.8728C18.7671 31.5352 18.5714 31.0774 18.5714 30.6V5.4C18.5714 4.92261 18.7671 4.46477 19.1154 4.12721C19.4637 3.78964 19.936 3.6 20.4286 3.6C20.9211 3.6 21.3935 3.78964 21.7418 4.12721C22.0901 4.46477 22.2857 4.92261 22.2857 5.4V30.6ZM5.57143 0C4.09379 0 2.67668 0.568927 1.63183 1.58162C0.586988 2.59432 0 3.96783 0 5.4V30.6C0 32.0322 0.586988 33.4057 1.63183 34.4184C2.67668 35.4311 4.09379 36 5.57143 36C7.04906 36 8.46618 35.4311 9.51102 34.4184C10.5559 33.4057 11.1429 32.0322 11.1429 30.6V5.4C11.1429 3.96783 10.5559 2.59432 9.51102 1.58162C8.46618 0.568927 7.04906 0 5.57143 0ZM7.42857 30.6C7.42857 31.0774 7.23291 31.5352 6.88463 31.8728C6.53634 32.2104 6.06397 32.4 5.57143 32.4C5.07888 32.4 4.60651 32.2104 4.25823 31.8728C3.90995 31.5352 3.71429 31.0774 3.71429 30.6V5.4C3.71429 4.92261 3.90995 4.46477 4.25823 4.12721C4.60651 3.78964 5.07888 3.6 5.57143 3.6C6.06397 3.6 6.53634 3.78964 6.88463 4.12721C7.23291 4.46477 7.42857 4.92261 7.42857 5.4V30.6Z" fill="white"/>
</svg>
