<svg width="23" height="23" viewBox="0 0 23 23" fill="none" xmlns="http://www.w3.org/2000/svg">
<rect width="23" height="23" rx="2" fill="#9290C3"/>
<path d="M11.5 10.7778C12.0651 10.7778 12.6175 10.6083 13.0873 10.2909C13.5572 9.97348 13.9234 9.5223 14.1397 8.99442C14.3559 8.46654 14.4125 7.88569 14.3022 7.3253C14.192 6.76491 13.9199 6.25016 13.5203 5.84614C13.1207 5.44212 12.6116 5.16698 12.0574 5.05551C11.5032 4.94404 10.9287 5.00125 10.4066 5.2199C9.88454 5.43856 9.43832 5.80883 9.12437 6.28391C8.81043 6.75898 8.64286 7.31752 8.64286 7.88889C8.64286 8.65507 8.94388 9.38987 9.47969 9.93164C10.0155 10.4734 10.7422 10.7778 11.5 10.7778ZM15.7857 18C15.9752 18 16.1568 17.9239 16.2908 17.7885C16.4247 17.653 16.5 17.4693 16.5 17.2778C16.5 15.937 15.9732 14.6511 15.0355 13.703C14.0979 12.7549 12.8261 12.2222 11.5 12.2222C10.1739 12.2222 8.90215 12.7549 7.96447 13.703C7.02678 14.6511 6.5 15.937 6.5 17.2778C6.5 17.4693 6.57526 17.653 6.70921 17.7885C6.84316 17.9239 7.02485 18 7.21429 18H15.7857Z" fill="white"/>
</svg>
