<svg width="60" height="60" viewBox="0 0 60 60" fill="none" xmlns="http://www.w3.org/2000/svg">
<rect width="60" height="60" rx="2" fill="#9290C3"/>
<path d="M26.8333 40.8C27.3196 40.8 27.7859 40.6104 28.1297 40.2728C28.4735 39.9352 28.6667 39.4774 28.6667 39V28.2C28.6667 27.7226 28.4735 27.2648 28.1297 26.9272C27.7859 26.5896 27.3196 26.4 26.8333 26.4C26.3471 26.4 25.8808 26.5896 25.537 26.9272C25.1932 27.2648 25 27.7226 25 28.2V39C25 39.4774 25.1932 39.9352 25.537 40.2728C25.8808 40.6104 26.3471 40.8 26.8333 40.8ZM45.1667 19.2H37.8333V17.4C37.8333 15.9678 37.2539 14.5943 36.2224 13.5816C35.191 12.5689 33.792 12 32.3333 12H28.6667C27.208 12 25.809 12.5689 24.7776 13.5816C23.7461 14.5943 23.1667 15.9678 23.1667 17.4V19.2H15.8333C15.3471 19.2 14.8808 19.3896 14.537 19.7272C14.1932 20.0648 14 20.5226 14 21C14 21.4774 14.1932 21.9352 14.537 22.2728C14.8808 22.6104 15.3471 22.8 15.8333 22.8H17.6667V42.6C17.6667 44.0322 18.2461 45.4057 19.2776 46.4184C20.309 47.4311 21.708 48 23.1667 48H37.8333C39.292 48 40.691 47.4311 41.7224 46.4184C42.7539 45.4057 43.3333 44.0322 43.3333 42.6V22.8H45.1667C45.6529 22.8 46.1192 22.6104 46.463 22.2728C46.8068 21.9352 47 21.4774 47 21C47 20.5226 46.8068 20.0648 46.463 19.7272C46.1192 19.3896 45.6529 19.2 45.1667 19.2ZM26.8333 17.4C26.8333 16.9226 27.0265 16.4648 27.3703 16.1272C27.7141 15.7896 28.1804 15.6 28.6667 15.6H32.3333C32.8196 15.6 33.2859 15.7896 33.6297 16.1272C33.9735 16.4648 34.1667 16.9226 34.1667 17.4V19.2H26.8333V17.4ZM39.6667 42.6C39.6667 43.0774 39.4735 43.5352 39.1297 43.8728C38.7859 44.2104 38.3196 44.4 37.8333 44.4H23.1667C22.6804 44.4 22.2141 44.2104 21.8703 43.8728C21.5265 43.5352 21.3333 43.0774 21.3333 42.6V22.8H39.6667V42.6ZM34.1667 40.8C34.6529 40.8 35.1192 40.6104 35.463 40.2728C35.8068 39.9352 36 39.4774 36 39V28.2C36 27.7226 35.8068 27.2648 35.463 26.9272C35.1192 26.5896 34.6529 26.4 34.1667 26.4C33.6804 26.4 33.2141 26.5896 32.8703 26.9272C32.5265 27.2648 32.3333 27.7226 32.3333 28.2V39C32.3333 39.4774 32.5265 39.9352 32.8703 40.2728C33.2141 40.6104 33.6804 40.8 34.1667 40.8Z" fill="white"/>
</svg>
