<svg width="31" height="34" viewBox="0 0 31 34" fill="none" xmlns="http://www.w3.org/2000/svg">
<path d="M15.4851 1.62495e-05C12.1331 -0.00354723 8.85886 1.02596 6.09431 2.95271C3.32977 4.87945 1.20487 7.61288 0 10.7923L2.56764 11.8605C3.45086 9.5113 4.93875 7.44645 6.87576 5.88182C8.81276 4.31719 11.1277 3.31025 13.5786 2.96627C16.0295 2.6223 18.5263 2.95393 20.808 3.92648C23.0896 4.89904 25.0723 6.4768 26.5488 8.4948H21.0566V11.3062H30.8017V1.4007H28.0358V5.78413C26.4719 3.9645 24.5424 2.5067 22.3774 1.50895C20.2124 0.511199 17.8622 -0.00333332 15.4851 1.62495e-05ZM28.4125 22.1691C27.423 24.8312 25.6603 27.1243 23.3584 28.7442C21.0566 30.364 18.3244 31.2339 15.5248 31.2383C13.3607 31.2184 11.2308 30.6884 9.30239 29.6899C7.37401 28.6915 5.69984 27.2519 4.41158 25.4844H9.91365V22.6629H0.208187V32.5785H2.9741V28.2152C4.85686 30.4084 7.26531 32.0697 9.96581 33.038C12.6663 34.0064 15.5672 34.2488 18.387 33.7419C21.2069 33.2349 23.85 31.9958 26.0599 30.1447C28.2698 28.2936 29.9715 25.8933 31 23.1768L28.4324 22.1691H28.4125Z" fill="white"/>
</svg>
