<svg width="32" height="36" viewBox="0 0 32 36" fill="none" xmlns="http://www.w3.org/2000/svg">
<path d="M17.6 3.42857V1.71429C17.6 0.7668 16.8843 0 16 0C15.1157 0 14.4 0.7668 14.4 1.71429V1.8012C6.32656 2.66451 0 9.98383 0 18.8571C0 28.3092 7.17808 36 16 36C24.8219 36 32 28.3092 32 18.8571C32 14.2668 30.3328 9.96257 27.3046 6.73834C26.6781 6.07046 25.6656 6.07543 25.0421 6.74503C24.4187 7.41634 24.4218 8.50286 25.0483 9.1692C27.4672 11.7456 28.8 15.1858 28.8 18.8571C28.8 26.419 23.0578 32.5714 16 32.5714C8.94224 32.5714 3.2 26.419 3.2 18.8571C3.2 11.8761 8.09536 6.09549 14.4 5.25V8.72623C9.86704 9.54634 6.4 13.7705 6.4 18.8571C6.4 24.529 10.7062 29.1429 16 29.1429C21.2938 29.1429 25.6 24.529 25.6 18.8571C25.6 16.1199 24.6062 13.5369 22.8016 11.5831C22.1813 10.9083 21.1656 10.9051 20.539 11.5697C19.9109 12.2361 19.9046 13.3209 20.5266 13.9939C21.7344 15.3031 22.4 17.029 22.4 18.8571C22.4 22.639 19.5298 25.7143 16 25.7143C12.4702 25.7143 9.6 22.639 9.6 18.8571C9.6 15.6679 11.6422 12.9794 14.4 12.2177V15.9058C13.4483 16.5007 12.8 17.5944 12.8 18.8573C12.8 20.7473 14.236 22.2859 16 22.2859C17.764 22.2859 19.2 20.7473 19.2 18.8573C19.2 17.9601 18.8891 17.1329 18.3 16.4633C18.1 16.2363 17.8581 16.1153 17.6 16.0358V10.2857V3.42857Z" fill="white"/>
</svg>
