<svg width="23" height="23" viewBox="0 0 23 23" fill="none" xmlns="http://www.w3.org/2000/svg">
<rect width="23" height="23" rx="2" fill="#9290C3"/>
<path d="M16.8333 9.21171L12.8333 5.53411C12.4667 5.19016 11.992 5 11.5 5C11.0081 5 10.5334 5.19016 10.1667 5.53411L6.16673 9.21171C5.95497 9.41033 5.78599 9.65397 5.67104 9.92643C5.55609 10.1989 5.4978 10.4939 5.50006 10.7918V16.9025C5.50006 17.4588 5.71078 17.9923 6.08585 18.3857C6.46092 18.779 6.96962 19 7.50005 19H15.5C16.0304 19 16.5391 18.779 16.9142 18.3857C17.2893 17.9923 17.5 17.4588 17.5 16.9025V10.7848C17.5013 10.4881 17.4425 10.1944 17.3276 9.92324C17.2127 9.65206 17.0442 9.40955 16.8333 9.21171ZM12.8333 17.6017H10.1667V14.1059C10.1667 13.9204 10.2369 13.7426 10.362 13.6115C10.487 13.4804 10.6565 13.4067 10.8334 13.4067H12.1667C12.3435 13.4067 12.5131 13.4804 12.6381 13.6115C12.7631 13.7426 12.8333 13.9204 12.8333 14.1059V17.6017ZM16.1667 16.9025C16.1667 17.0879 16.0964 17.2658 15.9714 17.3969C15.8464 17.528 15.6768 17.6017 15.5 17.6017H14.1667V14.1059C14.1667 13.5496 13.956 13.0161 13.5809 12.6227C13.2058 12.2294 12.6971 12.0084 12.1667 12.0084H10.8334C10.3029 12.0084 9.79422 12.2294 9.41915 12.6227C9.04408 13.0161 8.83337 13.5496 8.83337 14.1059V17.6017H7.50005C7.32324 17.6017 7.15367 17.528 7.02865 17.3969C6.90362 17.2658 6.83339 17.0879 6.83339 16.9025V10.7848C6.83351 10.6856 6.85378 10.5875 6.89286 10.497C6.93195 10.4066 6.98894 10.326 7.06005 10.2605L11.06 6.58985C11.1817 6.47776 11.3381 6.41594 11.5 6.41594C11.662 6.41594 11.8184 6.47776 11.94 6.58985L15.94 10.2605C16.0111 10.326 16.0681 10.4066 16.1072 10.497C16.1463 10.5875 16.1665 10.6856 16.1667 10.7848V16.9025Z" fill="white"/>
</svg>
