<svg width="36" height="36" viewBox="0 0 36 36" fill="none" xmlns="http://www.w3.org/2000/svg">
<path d="M19.8 3.42857V1.71429C19.8 0.7668 18.9949 0 18 0C17.0051 0 16.2 0.7668 16.2 1.71429V1.8012C7.11738 2.66451 0 9.98383 0 18.8571C0 28.3092 8.07534 36 18 36C27.9247 36 36 28.3092 36 18.8571C36 14.2668 34.1244 9.96257 30.7177 6.73834C30.0128 6.07046 28.8738 6.07543 28.1723 6.74503C27.4711 7.41634 27.4745 8.50286 28.1794 9.1692C30.9006 11.7456 32.4 15.1858 32.4 18.8571C32.4 26.419 25.94 32.5714 18 32.5714C10.06 32.5714 3.6 26.419 3.6 18.8571C3.6 11.8761 9.10728 6.09549 16.2 5.25V8.72623C11.1004 9.54634 7.2 13.7705 7.2 18.8571C7.2 24.529 12.0445 29.1429 18 29.1429C23.9555 29.1429 28.8 24.529 28.8 18.8571C28.8 16.1199 27.682 13.5369 25.6518 11.5831C24.9539 10.9083 23.8113 10.9051 23.1064 11.5697C22.3997 12.2361 22.3927 13.3209 23.0924 13.9939C24.4512 15.3031 25.2 17.029 25.2 18.8571C25.2 22.639 21.971 25.7143 18 25.7143C14.029 25.7143 10.8 22.639 10.8 18.8571C10.8 15.6679 13.0975 12.9794 16.2 12.2177V15.9058C15.1294 16.5007 14.4 17.5944 14.4 18.8573C14.4 20.7473 16.0155 22.2859 18 22.2859C19.9845 22.2859 21.6 20.7473 21.6 18.8573C21.6 17.9601 21.2503 17.1329 20.5875 16.4633C20.3625 16.2363 20.0903 16.1153 19.8 16.0358V10.2857V3.42857Z" fill="white"/>
</svg>
