<svg width="248" height="165" viewBox="0 0 248 165" fill="none" xmlns="http://www.w3.org/2000/svg">
<path d="M110.835 0.434814C88.5698 0.434814 72.6964 7.17803 61.2923 18.5447C50.1743 29.6263 44.0446 44.3922 39.6351 58.981L32.4567 82.7317H8.31081C4.05037 82.7317 0.596527 86.1857 0.596527 90.446C0.596527 104.271 8.44782 115.997 19.8553 122.338L13.7989 137.069C9.55395 147.394 14.4674 159.218 24.7947 163.476C27.2368 164.483 29.8526 165.001 32.4942 165.001H55.062C62.8991 165.001 70.0246 160.468 73.3561 153.378L80.6216 137.916C100.885 140.722 121.44 140.754 141.711 138.014L148.93 153.378C152.261 160.468 159.387 165.001 167.224 165.001H189.566C192.212 165.001 194.831 164.482 197.275 163.472C207.6 159.209 212.508 147.382 208.258 137.059L202.823 123.857H226.857C237.274 123.857 247.431 115.799 247.431 104.458V93C247.431 75.4556 232.202 62.1727 214.704 62.1727H184.37L183.402 58.9748C178.948 44.2539 172.463 29.5062 160.994 18.4522C149.281 7.16424 133.122 0.434814 110.835 0.434814ZM198.365 108.429L189.038 77.6012H214.704C224.834 77.6012 232.002 85.0861 232.002 93V104.458C232.002 105.849 230.256 108.429 226.857 108.429H198.365ZM157.486 135.308C167.587 133.203 177.577 130.397 187.386 126.889L193.991 142.933C195.004 145.394 193.83 148.202 191.388 149.21C190.81 149.449 190.192 149.572 189.566 149.572H167.224C165.374 149.572 163.685 148.503 162.893 146.817L157.486 135.308ZM36.8898 127.321C46.0788 130.548 55.4252 133.162 64.8691 135.161L59.3922 146.817C58.6001 148.503 56.9109 149.572 55.062 149.572H32.4942C31.8703 149.572 31.2523 149.45 30.6749 149.211C28.2329 148.205 27.0563 145.397 28.0684 142.936L34.5762 127.107C35.3417 127.2 36.113 127.271 36.8898 127.321ZM27.7936 98.1603L25.0051 107.387C21.6848 104.979 19.1207 101.778 17.5979 98.1603H27.7936Z" fill="#212121"/>
</svg>
