<svg width="23" height="23" viewBox="0 0 23 23" fill="none" xmlns="http://www.w3.org/2000/svg">
<rect width="23" height="23" rx="2" fill="#9290C3"/>
<path d="M12.1765 5.4762V4.76752C12.1765 4.37583 11.8739 4.05884 11.5 4.05884C11.1261 4.05884 10.8235 4.37583 10.8235 4.76752V4.80345C7.41013 5.16034 4.73529 8.18614 4.73529 11.8544C4.73529 15.7618 7.77014 18.9412 11.5 18.9412C15.2299 18.9412 18.2647 15.7618 18.2647 11.8544C18.2647 9.95671 17.5598 8.17735 16.2795 6.84446C16.0146 6.56836 15.5866 6.57041 15.3229 6.84722C15.0594 7.12474 15.0607 7.57391 15.3256 7.84937C16.3483 8.91445 16.9118 10.3366 16.9118 11.8544C16.9118 14.9804 14.484 17.5238 11.5 17.5238C8.51602 17.5238 6.08824 14.9804 6.08824 11.8544C6.08824 8.96838 8.15796 6.5787 10.8235 6.22918V7.66625C8.90702 8.00528 7.44118 9.75155 7.44118 11.8544C7.44118 14.1991 9.26183 16.1065 11.5 16.1065C13.7382 16.1065 15.5588 14.1991 15.5588 11.8544C15.5588 10.7228 15.1387 9.65496 14.3757 8.84727C14.1134 8.56833 13.684 8.56699 13.4191 8.84174C13.1535 9.11721 13.1509 9.56566 13.4138 9.84389C13.9245 10.3851 14.2059 11.0986 14.2059 11.8544C14.2059 13.4178 12.9924 14.6891 11.5 14.6891C10.0076 14.6891 8.79412 13.4178 8.79412 11.8544C8.79412 10.5359 9.65756 9.42449 10.8235 9.10963V10.6343C10.4212 10.8802 10.1471 11.3323 10.1471 11.8544C10.1471 12.6358 10.7542 13.2718 11.5 13.2718C12.2458 13.2718 12.8529 12.6358 12.8529 11.8544C12.8529 11.4835 12.7215 11.1416 12.4724 10.8648C12.3879 10.7709 12.2856 10.7209 12.1765 10.688V8.31094V5.4762Z" fill="white"/>
</svg>
