<svg width="27" height="30" viewBox="0 0 27 30" fill="none" xmlns="http://www.w3.org/2000/svg">
<path d="M10.5 24C10.8978 24 11.2794 23.842 11.5607 23.5607C11.842 23.2794 12 22.8978 12 22.5V13.5C12 13.1022 11.842 12.7206 11.5607 12.4393C11.2794 12.158 10.8978 12 10.5 12C10.1022 12 9.72064 12.158 9.43934 12.4393C9.15804 12.7206 9 13.1022 9 13.5V22.5C9 22.8978 9.15804 23.2794 9.43934 23.5607C9.72064 23.842 10.1022 24 10.5 24ZM25.5 6H19.5V4.5C19.5 3.30653 19.0259 2.16193 18.182 1.31802C17.3381 0.474106 16.1935 0 15 0H12C10.8065 0 9.66193 0.474106 8.81802 1.31802C7.97411 2.16193 7.5 3.30653 7.5 4.5V6H1.5C1.10218 6 0.720644 6.15804 0.43934 6.43934C0.158035 6.72064 0 7.10218 0 7.5C0 7.89782 0.158035 8.27936 0.43934 8.56066C0.720644 8.84196 1.10218 9 1.5 9H3V25.5C3 26.6935 3.47411 27.8381 4.31802 28.682C5.16193 29.5259 6.30653 30 7.5 30H19.5C20.6935 30 21.8381 29.5259 22.682 28.682C23.5259 27.8381 24 26.6935 24 25.5V9H25.5C25.8978 9 26.2794 8.84196 26.5607 8.56066C26.842 8.27936 27 7.89782 27 7.5C27 7.10218 26.842 6.72064 26.5607 6.43934C26.2794 6.15804 25.8978 6 25.5 6ZM10.5 4.5C10.5 4.10218 10.658 3.72064 10.9393 3.43934C11.2206 3.15804 11.6022 3 12 3H15C15.3978 3 15.7794 3.15804 16.0607 3.43934C16.342 3.72064 16.5 4.10218 16.5 4.5V6H10.5V4.5ZM21 25.5C21 25.8978 20.842 26.2794 20.5607 26.5607C20.2794 26.842 19.8978 27 19.5 27H7.5C7.10218 27 6.72064 26.842 6.43934 26.5607C6.15804 26.2794 6 25.8978 6 25.5V9H21V25.5ZM16.5 24C16.8978 24 17.2794 23.842 17.5607 23.5607C17.842 23.2794 18 22.8978 18 22.5V13.5C18 13.1022 17.842 12.7206 17.5607 12.4393C17.2794 12.158 16.8978 12 16.5 12C16.1022 12 15.7206 12.158 15.4393 12.4393C15.158 12.7206 15 13.1022 15 13.5V22.5C15 22.8978 15.158 23.2794 15.4393 23.5607C15.7206 23.842 16.1022 24 16.5 24Z" fill="white"/>
</svg>
