<svg width="23" height="23" viewBox="0 0 23 23" fill="none" xmlns="http://www.w3.org/2000/svg">
<rect width="23" height="23" rx="2" fill="#9290C3"/>
<path d="M16.4813 5.16123H15.3743V4.61004C15.3743 4.46385 15.316 4.32365 15.2122 4.22028C15.1084 4.11691 14.9676 4.05884 14.8209 4.05884C14.6741 4.05884 14.5333 4.11691 14.4295 4.22028C14.3257 4.32365 14.2674 4.46385 14.2674 4.61004V5.16123H12.0535V4.61004C12.0535 4.46385 11.9952 4.32365 11.8914 4.22028C11.7876 4.11691 11.6468 4.05884 11.5 4.05884C11.3532 4.05884 11.2124 4.11691 11.1086 4.22028C11.0048 4.32365 10.9465 4.46385 10.9465 4.61004V5.16123H8.73262V4.61004C8.73262 4.46385 8.67431 4.32365 8.57051 4.22028C8.46672 4.11691 8.32594 4.05884 8.17915 4.05884C8.03235 4.05884 7.89158 4.11691 7.78778 4.22028C7.68398 4.32365 7.62567 4.46385 7.62567 4.61004V5.16123H6.51872C6.22524 5.16157 5.94388 5.27782 5.73636 5.48449C5.52883 5.69116 5.4121 5.97136 5.41177 6.26363V16.7364C5.41244 17.3209 5.6459 17.8813 6.06094 18.2947C6.47599 18.708 7.03871 18.9405 7.62567 18.9412H15.3743C15.9613 18.9405 16.524 18.708 16.9391 18.2947C17.3541 17.8813 17.5876 17.3209 17.5882 16.7364V6.26363C17.5879 5.97136 17.4712 5.69116 17.2636 5.48449C17.0561 5.27782 16.7748 5.16157 16.4813 5.16123ZM13.7139 14.5316H9.2861C9.13931 14.5316 8.99853 14.4735 8.89473 14.3702C8.79093 14.2668 8.73262 14.1266 8.73262 13.9804C8.73262 13.8342 8.79093 13.694 8.89473 13.5906C8.99853 13.4873 9.13931 13.4292 9.2861 13.4292H13.7139C13.8607 13.4292 14.0015 13.4873 14.1053 13.5906C14.2091 13.694 14.2674 13.8342 14.2674 13.9804C14.2674 14.1266 14.2091 14.2668 14.1053 14.3702C14.0015 14.4735 13.8607 14.5316 13.7139 14.5316ZM13.7139 12.3268H9.2861C9.13931 12.3268 8.99853 12.2687 8.89473 12.1654C8.79093 12.062 8.73262 11.9218 8.73262 11.7756C8.73262 11.6294 8.79093 11.4892 8.89473 11.3859C8.99853 11.2825 9.13931 11.2244 9.2861 11.2244H13.7139C13.8607 11.2244 14.0015 11.2825 14.1053 11.3859C14.2091 11.4892 14.2674 11.6294 14.2674 11.7756C14.2674 11.9218 14.2091 12.062 14.1053 12.1654C14.0015 12.2687 13.8607 12.3268 13.7139 12.3268Z" fill="white"/>
</svg>
