<svg width="23" height="23" viewBox="0 0 23 23" fill="none" xmlns="http://www.w3.org/2000/svg">
<rect width="23" height="23" rx="2" fill="#9290C3"/>
<path d="M16.6463 10.7126C17.0654 10.5949 17.4351 10.3097 17.6849 9.91149C17.9348 9.51323 18.0471 9.02989 18.0005 8.55381C17.9539 8.07771 17.7517 7.64229 17.4324 7.33071C17.1132 7.01916 16.6993 6.85331 16.2699 6.86489M6.41246 10.7126C5.99343 10.5949 5.62367 10.3097 5.37386 9.91149C5.12403 9.51323 5.01168 9.02989 5.05828 8.55381C5.10486 8.07771 5.3071 7.64229 5.62638 7.33071C5.94563 7.01916 6.35954 6.85331 6.78894 6.86489M17.1494 13.1733L17.2397 13.1462C18.0938 12.8896 18.9412 13.575 18.9412 14.5224C18.9412 16.1016 17.7423 17.3818 16.2633 17.3818H16.2353M5.85056 13.1733L5.76032 13.1462C4.90619 12.8896 4.05882 13.575 4.05882 14.5224C4.05882 16.1016 5.25774 17.3818 6.73668 17.3818H6.76471M14.1092 8.09469C14.1092 9.57645 12.941 10.7776 11.5 10.7776C10.059 10.7776 8.89076 9.57645 8.89076 8.09469C8.89076 6.61294 10.059 5.41174 11.5 5.41174C12.941 5.41174 14.1092 6.61294 14.1092 8.09469ZM7.34454 14.0667C7.34454 12.859 8.45725 12.0097 9.52737 12.4008L10.135 12.6228C11.0198 12.9461 11.9802 12.9461 12.865 12.6228L13.4726 12.4008C14.5427 12.0097 15.6555 12.859 15.6555 14.0667C15.6555 16.0116 14.1789 17.5882 12.3575 17.5882H10.6425C8.82108 17.5882 7.34454 16.0116 7.34454 14.0667Z" stroke="white" stroke-linecap="round"/>
</svg>
