<svg width="16" height="16" viewBox="0 0 16 16" fill="none" xmlns="http://www.w3.org/2000/svg">
<path d="M13.9993 0H6.66323C6.13309 0.00158273 5.62512 0.212805 5.25025 0.587535C4.87538 0.962265 4.66408 1.47005 4.6625 2V6H10.6647C11.1953 6 11.7042 6.21071 12.0794 6.58579C12.4546 6.96086 12.6654 7.46957 12.6654 8C12.6654 8.53043 12.4546 9.03914 12.0794 9.41421C11.7042 9.78929 11.1953 10 10.6647 10H4.6625V14C4.66408 14.5299 4.87538 15.0377 5.25025 15.4125C5.62512 15.7872 6.13309 15.9984 6.66323 16H13.9993C14.5294 15.9984 15.0374 15.7872 15.4122 15.4125C15.7871 15.0377 15.9984 14.5299 16 14V2C15.9984 1.47005 15.7871 0.962265 15.4122 0.587535C15.0374 0.212805 14.5294 0.00158273 13.9993 0Z" fill="white"/>
<path d="M2.26829 8.66667H10.6647C10.8416 8.66667 11.0112 8.59643 11.1363 8.4714C11.2614 8.34638 11.3316 8.17681 11.3316 8C11.3316 7.82319 11.2614 7.65362 11.1363 7.5286C11.0112 7.40357 10.8416 7.33333 10.6647 7.33333H2.26829L3.13527 6.47333C3.26085 6.3478 3.3314 6.17753 3.3314 6C3.3314 5.82247 3.26085 5.6522 3.13527 5.52667C3.00969 5.40113 2.83936 5.33061 2.66176 5.33061C2.48416 5.33061 2.31384 5.40113 2.18826 5.52667L0.18752 7.52667C0.0670579 7.65486 0 7.82412 0 8C0 8.17588 0.0670579 8.34514 0.18752 8.47333L2.18826 10.4733C2.31596 10.5948 2.48549 10.6625 2.66176 10.6625C2.83804 10.6625 3.00757 10.5948 3.13527 10.4733C3.26022 10.3475 3.33033 10.1773 3.33033 10C3.33033 9.82268 3.26022 9.65254 3.13527 9.52667L2.26829 8.66667Z" fill="white"/>
</svg>
