<svg width="199" height="33" viewBox="0 0 199 33" fill="none" xmlns="http://www.w3.org/2000/svg">
<path d="M34.4658 0.340208V32.4168H27.1712V13.5353L27.4894 8.16495L26.241 14.313L20.8068 29.8409H13.6346L8.2248 14.313L7.00087 8.16495L7.31909 13.5353V32.4168H0V0.340208H10.281L16.7923 21.7489L17.2329 24.3004L17.6735 21.7489L24.1848 0.340208H34.4658Z" fill="#5A618E"/>
<path d="M50.5612 33C48.3582 33 46.3999 32.5545 44.6864 31.6635C42.9892 30.7563 41.651 29.5169 40.6719 27.9455C39.7091 26.3579 39.2277 24.5434 39.2277 22.5022C39.2277 20.461 39.7091 18.6465 40.6719 17.0589C41.651 15.4551 42.9892 14.1915 44.6864 13.268C46.3999 12.3446 48.3582 11.8829 50.5612 11.8829C52.7643 11.8829 54.7063 12.3446 56.3871 13.268C58.068 14.1915 59.3817 15.4551 60.3282 17.0589C61.2747 18.6465 61.7479 20.461 61.7479 22.5022C61.7479 24.5434 61.2747 26.3579 60.3282 27.9455C59.3817 29.5169 58.068 30.7563 56.3871 31.6635C54.7063 32.5545 52.7643 33 50.5612 33ZM50.5612 26.9249C51.4098 26.9249 52.1442 26.7386 52.7643 26.366C53.3844 25.9934 53.8658 25.4669 54.2085 24.7865C54.5512 24.106 54.7226 23.3365 54.7226 22.4779C54.7226 21.6031 54.5512 20.8255 54.2085 20.1451C53.8658 19.4647 53.3844 18.93 52.7643 18.5412C52.1442 18.1524 51.4098 17.958 50.5612 17.958C49.7126 17.958 48.9701 18.1524 48.3337 18.5412C47.7136 18.93 47.224 19.4647 46.865 20.1451C46.5223 20.8255 46.3509 21.6031 46.3509 22.4779C46.3509 23.3365 46.5223 24.106 46.865 24.7865C47.224 25.4669 47.7136 25.9934 48.3337 26.366C48.9701 26.7386 49.7126 26.9249 50.5612 26.9249Z" fill="#5A618E"/>
<path d="M79.4509 11.8829C80.8544 11.8829 82.2252 12.1664 83.5633 12.7334C84.9015 13.3004 86.003 14.1996 86.8679 15.4308C87.7328 16.6458 88.1653 18.2496 88.1653 20.2423V32.4168H80.6993V21.4573C80.6993 20.0317 80.3566 18.9624 79.6712 18.2496C78.9858 17.5206 78.0883 17.1561 76.9786 17.1561C76.2442 17.1561 75.5507 17.3505 74.8979 17.7393C74.2615 18.1119 73.7393 18.6465 73.3313 19.3432C72.9396 20.0236 72.7438 20.8093 72.7438 21.7003V32.4168H65.3023V12.4661H72.7438V15.4065C72.9396 14.8719 73.3476 14.3373 73.9677 13.8027C74.6042 13.2518 75.3956 12.7982 76.3421 12.4418C77.305 12.0692 78.3412 11.8829 79.4509 11.8829Z" fill="#5A618E"/>
<path d="M92.7344 32.4168V12.4661H100.176V32.4168H92.7344ZM96.553 8.35935C95.378 8.35935 94.3826 7.95434 93.5666 7.14433C92.7507 6.31811 92.3427 5.338 92.3427 4.20398C92.3427 3.06996 92.7507 2.08984 93.5666 1.26362C94.3989 0.421208 95.3944 0 96.553 0C97.32 0 98.0217 0.194404 98.6582 0.583212C99.2946 0.955818 99.8087 1.45803 100.2 2.08984C100.592 2.72165 100.788 3.42636 100.788 4.20398C100.788 5.338 100.372 6.31811 99.5394 7.14433C98.7071 7.95434 97.7117 8.35935 96.553 8.35935Z" fill="#5A618E"/>
<path d="M103.589 12.4661H107.016V4.27688H114.384V12.4661H118.888V18.5412H114.384V24.106C114.384 24.9323 114.507 25.6046 114.751 26.123C114.996 26.6252 115.445 26.8763 116.098 26.8763C116.538 26.8763 116.914 26.7791 117.224 26.5847C117.534 26.3903 117.721 26.2607 117.787 26.1959L120.332 31.4448C120.218 31.542 119.859 31.7202 119.255 31.9794C118.668 32.2386 117.917 32.4735 117.003 32.6841C116.089 32.8947 115.07 33 113.944 33C111.936 33 110.28 32.4411 108.974 31.3233C107.669 30.1892 107.016 28.4477 107.016 26.0987V18.5412H103.589V12.4661Z" fill="#5A618E"/>
<path d="M133.32 33C131.117 33 129.158 32.5545 127.445 31.6635C125.748 30.7563 124.41 29.5169 123.43 27.9455C122.468 26.3579 121.986 24.5434 121.986 22.5022C121.986 20.461 122.468 18.6465 123.43 17.0589C124.41 15.4551 125.748 14.1915 127.445 13.268C129.158 12.3446 131.117 11.8829 133.32 11.8829C135.523 11.8829 137.465 12.3446 139.146 13.268C140.827 14.1915 142.14 15.4551 143.087 17.0589C144.033 18.6465 144.507 20.461 144.507 22.5022C144.507 24.5434 144.033 26.3579 143.087 27.9455C142.14 29.5169 140.827 30.7563 139.146 31.6635C137.465 32.5545 135.523 33 133.32 33ZM133.32 26.9249C134.168 26.9249 134.903 26.7386 135.523 26.366C136.143 25.9934 136.624 25.4669 136.967 24.7865C137.31 24.106 137.481 23.3365 137.481 22.4779C137.481 21.6031 137.31 20.8255 136.967 20.1451C136.624 19.4647 136.143 18.93 135.523 18.5412C134.903 18.1524 134.168 17.958 133.32 17.958C132.471 17.958 131.729 18.1524 131.092 18.5412C130.472 18.93 129.983 19.4647 129.624 20.1451C129.281 20.8255 129.11 21.6031 129.11 22.4779C129.11 23.3365 129.281 24.106 129.624 24.7865C129.983 25.4669 130.472 25.9934 131.092 26.366C131.729 26.7386 132.471 26.9249 133.32 26.9249Z" fill="#5A618E"/>
<path d="M155.184 32.4168H147.743V12.4661H155.184V15.5523H155.062C155.192 15.1797 155.511 14.7099 156.016 14.1429C156.522 13.5596 157.232 13.0412 158.146 12.5876C159.06 12.1178 160.178 11.8829 161.5 11.8829C162.43 11.8829 163.287 12.0287 164.07 12.3203C164.853 12.5957 165.424 12.863 165.783 13.1222L162.895 19.1244C162.666 18.849 162.258 18.5655 161.671 18.2739C161.1 17.9661 160.382 17.8122 159.517 17.8122C158.521 17.8122 157.697 18.0633 157.045 18.5655C156.408 19.0677 155.935 19.6753 155.625 20.3881C155.331 21.1009 155.184 21.7732 155.184 22.405V32.4168Z" fill="#5A618E"/>
<path d="M186.859 15.1635L199 32.4168H189.453L181.987 21.2143L174.766 32.4168H165.954L177.41 15.1635L167.007 0.340208H176.308L182.281 9.57437L188.18 0.340208H197.091L186.859 15.1635Z" fill="#B1D3E3"/>
</svg>
