<svg width="172" height="41" viewBox="0 0 172 41" fill="none" xmlns="http://www.w3.org/2000/svg">
<path d="M28.4232 0.275985V26.2973H22.5494V10.9802L22.8056 6.62361L21.8003 11.611L17.4245 24.2077H11.6492L7.29306 11.611L6.30751 6.62361L6.56375 10.9802V26.2973H0.670173V0.275985H8.94878L14.1919 17.6432L14.5467 19.7131L14.9015 17.6432L20.1446 0.275985H28.4232Z" fill="#5A618E"/>
<path d="M41.3838 26.7704C39.6098 26.7704 38.0329 26.409 36.6532 25.6862C35.2865 24.9502 34.209 23.9449 33.4206 22.6701C32.6453 21.3822 32.2576 19.9102 32.2576 18.2543C32.2576 16.5984 32.6453 15.1265 33.4206 13.8386C34.209 12.5375 35.2865 11.5125 36.6532 10.7634C38.0329 10.0143 39.6098 9.63972 41.3838 9.63972C43.1578 9.63972 44.7215 10.0143 46.075 10.7634C47.4285 11.5125 48.4863 12.5375 49.2485 13.8386C50.0106 15.1265 50.3917 16.5984 50.3917 18.2543C50.3917 19.9102 50.0106 21.3822 49.2485 22.6701C48.4863 23.9449 47.4285 24.9502 46.075 25.6862C44.7215 26.409 43.1578 26.7704 41.3838 26.7704ZM41.3838 21.8421C42.0671 21.8421 42.6584 21.691 43.1578 21.3887C43.6571 21.0865 44.0448 20.6593 44.3207 20.1074C44.5967 19.5554 44.7347 18.9312 44.7347 18.2346C44.7347 17.525 44.5967 16.8941 44.3207 16.3422C44.0448 15.7902 43.6571 15.3565 43.1578 15.0411C42.6584 14.7257 42.0671 14.568 41.3838 14.568C40.7005 14.568 40.1026 14.7257 39.5901 15.0411C39.0908 15.3565 38.6965 15.7902 38.4074 16.3422C38.1315 16.8941 37.9935 17.525 37.9935 18.2346C37.9935 18.9312 38.1315 19.5554 38.4074 20.1074C38.6965 20.6593 39.0908 21.0865 39.5901 21.3887C40.1026 21.691 40.7005 21.8421 41.3838 21.8421Z" fill="#5A618E"/>
<path d="M64.6467 9.63972C65.7768 9.63972 66.8807 9.8697 67.9582 10.3297C69.0357 10.7896 69.9227 11.519 70.6192 12.5178C71.3156 13.5035 71.6638 14.8046 71.6638 16.421V26.2973H65.652V17.4067C65.652 16.2502 65.3761 15.3828 64.8241 14.8046C64.2722 14.2132 63.5495 13.9175 62.6559 13.9175C62.0646 13.9175 61.5061 14.0752 60.9805 14.3906C60.468 14.6928 60.0475 15.1265 59.719 15.6916C59.4036 16.2436 59.2459 16.881 59.2459 17.6038V26.2973H53.2538V10.1128H59.2459V12.4981C59.4036 12.0644 59.7321 11.6307 60.2315 11.1971C60.744 10.7502 61.3813 10.3822 62.1435 10.0931C62.9188 9.79085 63.7532 9.63972 64.6467 9.63972Z" fill="#5A618E"/>
<path d="M75.343 26.2973V10.1128H81.3352V26.2973H75.343ZM78.4179 6.78131C77.4718 6.78131 76.6702 6.45276 76.0132 5.79566C75.3562 5.12541 75.0277 4.33032 75.0277 3.41037C75.0277 2.49042 75.3562 1.69533 76.0132 1.02508C76.6834 0.341694 77.485 0 78.4179 0C79.0356 0 79.6006 0.157705 80.1131 0.473116C80.6256 0.775384 81.0395 1.18279 81.3549 1.69533C81.6702 2.20787 81.8279 2.77955 81.8279 3.41037C81.8279 4.33032 81.4929 5.12541 80.8227 5.79566C80.1525 6.45276 79.3509 6.78131 78.4179 6.78131Z" fill="#5A618E"/>
<path d="M84.0836 10.1128H86.8431V3.46951H92.7761V10.1128H96.403V15.0411H92.7761V19.5554C92.7761 20.2257 92.8747 20.7711 93.0718 21.1916C93.2689 21.599 93.6303 21.8027 94.1559 21.8027C94.5107 21.8027 94.813 21.7239 95.0626 21.5662C95.3123 21.4084 95.4634 21.3033 95.516 21.2507L97.5659 25.5088C97.4739 25.5876 97.1848 25.7322 96.6986 25.9425C96.2256 26.1527 95.6211 26.3433 94.8852 26.5141C94.1493 26.685 93.3281 26.7704 92.4214 26.7704C90.8051 26.7704 89.4713 26.317 88.42 25.4102C87.3688 24.4903 86.8431 23.0775 86.8431 21.1719V15.0411H84.0836V10.1128Z" fill="#5A618E"/>
<path d="M108.024 26.7704C106.25 26.7704 104.673 26.409 103.293 25.6862C101.927 24.9502 100.849 23.9449 100.061 22.6701C99.2853 21.3822 98.8976 19.9102 98.8976 18.2543C98.8976 16.5984 99.2853 15.1265 100.061 13.8386C100.849 12.5375 101.927 11.5125 103.293 10.7634C104.673 10.0143 106.25 9.63972 108.024 9.63972C109.798 9.63972 111.362 10.0143 112.715 10.7634C114.069 11.5125 115.126 12.5375 115.888 13.8386C116.651 15.1265 117.032 16.5984 117.032 18.2543C117.032 19.9102 116.651 21.3822 115.888 22.6701C115.126 23.9449 114.069 24.9502 112.715 25.6862C111.362 26.409 109.798 26.7704 108.024 26.7704ZM108.024 21.8421C108.707 21.8421 109.298 21.691 109.798 21.3887C110.297 21.0865 110.685 20.6593 110.961 20.1074C111.237 19.5554 111.375 18.9312 111.375 18.2346C111.375 17.525 111.237 16.8941 110.961 16.3422C110.685 15.7902 110.297 15.3565 109.798 15.0411C109.298 14.7257 108.707 14.568 108.024 14.568C107.341 14.568 106.743 14.7257 106.23 15.0411C105.731 15.3565 105.337 15.7902 105.047 16.3422C104.772 16.8941 104.634 17.525 104.634 18.2346C104.634 18.9312 104.772 19.5554 105.047 20.1074C105.337 20.6593 105.731 21.0865 106.23 21.3887C106.743 21.691 107.341 21.8421 108.024 21.8421Z" fill="#5A618E"/>
<path d="M125.63 26.2973H119.638V10.1128H125.63V12.6164H125.531C125.636 12.3141 125.893 11.933 126.3 11.473C126.707 10.9999 127.279 10.5794 128.015 10.2114C128.751 9.83028 129.651 9.63972 130.715 9.63972C131.464 9.63972 132.154 9.75799 132.785 9.99455C133.416 10.218 133.875 10.4348 134.165 10.6451L131.839 15.5142C131.655 15.2908 131.326 15.0608 130.853 14.8243C130.393 14.5746 129.815 14.4497 129.119 14.4497C128.317 14.4497 127.653 14.6534 127.128 15.0608C126.615 15.4682 126.234 15.9611 125.985 16.5393C125.748 17.1176 125.63 17.663 125.63 18.1755V26.2973Z" fill="#5A618E"/>
<path d="M151.135 12.301L160.912 26.2973H153.224L147.213 17.2096L141.398 26.2973H134.302L143.527 12.301L135.149 0.275985H142.64L147.449 7.76697L152.199 0.275985H159.374L151.135 12.301Z" fill="#B1D3E3"/>
<path d="M0.620896 38.7231C0.614325 38.8086 0.578188 38.8808 0.512485 38.94C0.453352 38.9991 0.384364 39.0287 0.30552 39.0287C0.213536 39.0287 0.137977 38.9991 0.0788439 38.94C0.0262813 38.8808 0 38.8086 0 38.7231V32.4346C0 32.3492 0.0295665 32.2769 0.0886994 32.2178C0.147832 32.1587 0.223391 32.1291 0.315376 32.1291C0.394219 32.1291 0.463208 32.1587 0.522341 32.2178C0.588044 32.2769 0.620896 32.3492 0.620896 32.4346V38.7231Z" fill="white"/>
<path d="M5.97242 33.8737C6.40607 33.8737 6.75101 33.9624 7.00725 34.1398C7.27006 34.3107 7.45732 34.5472 7.56901 34.8495C7.68728 35.1452 7.74641 35.4738 7.74641 35.8352V38.733C7.74641 38.8118 7.71685 38.8808 7.65771 38.94C7.59858 38.9991 7.52959 39.0287 7.45075 39.0287C7.35876 39.0287 7.28649 38.9991 7.23393 38.94C7.18136 38.8808 7.15508 38.8118 7.15508 38.733V35.8647C7.15508 35.6019 7.11238 35.362 7.02696 35.1452C6.94155 34.9284 6.80028 34.7542 6.60318 34.6228C6.41264 34.4914 6.15968 34.4257 5.8443 34.4257C5.56178 34.4257 5.2924 34.4914 5.03615 34.6228C4.78648 34.7542 4.5828 34.9284 4.42511 35.1452C4.26743 35.362 4.18858 35.6019 4.18858 35.8647V38.733C4.18858 38.8118 4.15901 38.8808 4.09988 38.94C4.04075 38.9991 3.97176 39.0287 3.89292 39.0287C3.80093 39.0287 3.72866 38.9991 3.6761 38.94C3.62353 38.8808 3.59725 38.8118 3.59725 38.733V34.3173C3.59725 34.2384 3.62353 34.1694 3.6761 34.1103C3.73523 34.0511 3.8075 34.0216 3.89292 34.0216C3.97833 34.0216 4.04732 34.0511 4.09988 34.1103C4.15901 34.1694 4.18858 34.2384 4.18858 34.3173V35.1452L3.9619 35.5C3.97505 35.2898 4.04075 35.0893 4.15901 34.8988C4.28385 34.7017 4.44154 34.5275 4.63208 34.3764C4.82262 34.2187 5.03287 34.0971 5.26283 34.0117C5.49936 33.9197 5.73589 33.8737 5.97242 33.8737Z" fill="white"/>
<path d="M10.2509 34.0117H12.5473C12.6261 34.0117 12.6918 34.0413 12.7444 34.1004C12.7969 34.153 12.8232 34.2187 12.8232 34.2975C12.8232 34.3698 12.7969 34.4322 12.7444 34.4848C12.6918 34.5374 12.6261 34.5637 12.5473 34.5637H10.2509C10.1721 34.5637 10.1031 34.5374 10.044 34.4848C9.99141 34.4257 9.96513 34.36 9.96513 34.2877C9.96513 34.2088 9.99141 34.1431 10.044 34.0906C10.1031 34.038 10.1721 34.0117 10.2509 34.0117ZM11.2661 32.6219C11.3515 32.6219 11.4205 32.6515 11.473 32.7106C11.5321 32.7698 11.5617 32.8388 11.5617 32.9176V37.8656C11.5617 38.0496 11.5847 38.1876 11.6307 38.2796C11.6833 38.3716 11.749 38.434 11.8278 38.4669C11.9067 38.4931 11.9855 38.5063 12.0643 38.5063C12.1169 38.5063 12.1629 38.4997 12.2023 38.4866C12.2483 38.4669 12.2976 38.457 12.3502 38.457C12.4093 38.457 12.4586 38.48 12.498 38.526C12.544 38.572 12.567 38.6311 12.567 38.7034C12.567 38.7954 12.5144 38.8743 12.4093 38.94C12.3042 38.9991 12.1793 39.0287 12.0348 39.0287C11.9756 39.0287 11.8869 39.0254 11.7687 39.0188C11.6504 39.0057 11.5289 38.9695 11.404 38.9104C11.2792 38.8447 11.1741 38.733 11.0887 38.5753C11.0098 38.4176 10.9704 38.1909 10.9704 37.8952V32.9176C10.9704 32.8388 10.9967 32.7698 11.0492 32.7106C11.1084 32.6515 11.1806 32.6219 11.2661 32.6219Z" fill="white"/>
<path d="M17.4256 39.1273C16.9197 39.1273 16.4729 39.0188 16.0852 38.802C15.6976 38.5851 15.3953 38.2829 15.1785 37.8952C14.9617 37.5075 14.8533 37.0541 14.8533 36.535C14.8533 35.9764 14.9617 35.5 15.1785 35.1058C15.4019 34.7115 15.6877 34.4092 16.036 34.199C16.3907 33.9821 16.7653 33.8737 17.1595 33.8737C17.4486 33.8737 17.7278 33.9263 17.9972 34.0314C18.2731 34.13 18.5163 34.2811 18.7265 34.4848C18.9433 34.6819 19.1141 34.9251 19.239 35.2142C19.3704 35.5033 19.4427 35.8384 19.4558 36.2196C19.4492 36.2984 19.4164 36.3674 19.3573 36.4266C19.2981 36.4791 19.2291 36.5054 19.1503 36.5054H15.1982L15.08 35.9732H18.963L18.8349 36.0914V35.8943C18.8086 35.5855 18.7101 35.3226 18.5392 35.1058C18.3684 34.8889 18.1615 34.7247 17.9183 34.6129C17.6752 34.5012 17.4223 34.4454 17.1595 34.4454C16.9624 34.4454 16.7587 34.4848 16.5484 34.5637C16.3448 34.6425 16.1575 34.7674 15.9867 34.9382C15.8224 35.1025 15.6877 35.316 15.5826 35.5789C15.4775 35.8352 15.4249 36.1407 15.4249 36.4956C15.4249 36.8832 15.5038 37.2348 15.6614 37.5502C15.8191 37.8656 16.0458 38.1153 16.3415 38.2993C16.6437 38.4833 17.0018 38.5753 17.4157 38.5753C17.6457 38.5753 17.8526 38.5424 18.0366 38.4767C18.2206 38.411 18.3816 38.3256 18.5195 38.2204C18.6575 38.1087 18.7725 37.9937 18.8645 37.8755C18.9368 37.8163 19.009 37.7868 19.0813 37.7868C19.147 37.7868 19.2028 37.813 19.2488 37.8656C19.3014 37.9182 19.3277 37.9773 19.3277 38.043C19.3277 38.1219 19.2948 38.1909 19.2291 38.25C19.032 38.4866 18.7758 38.6936 18.4604 38.871C18.145 39.0418 17.8001 39.1273 17.4256 39.1273Z" fill="white"/>
<path d="M24.0539 33.8737C24.3495 33.8737 24.6222 33.9263 24.8719 34.0314C25.1215 34.13 25.3383 34.2614 25.5223 34.4257C25.7129 34.5834 25.8607 34.7542 25.9658 34.9382C26.0709 35.1156 26.1235 35.2865 26.1235 35.4508L25.956 35.2142V34.2975C25.956 34.2121 25.9822 34.1398 26.0348 34.0807C26.0939 34.0216 26.1662 33.992 26.2516 33.992C26.3436 33.992 26.4159 34.0216 26.4684 34.0807C26.521 34.1398 26.5473 34.2121 26.5473 34.2975V38.5654C26.5473 39.0911 26.4389 39.5347 26.2221 39.8961C26.0052 40.2575 25.7096 40.5302 25.3351 40.7142C24.9671 40.9047 24.5466 41 24.0736 41C23.8436 41 23.6005 40.9704 23.3443 40.9113C23.0946 40.8521 22.8778 40.7766 22.6938 40.6846C22.5164 40.5926 22.4178 40.4973 22.3981 40.3987C22.3456 40.3396 22.3193 40.2805 22.3193 40.2213C22.3259 40.1688 22.3554 40.1228 22.408 40.0833C22.4737 40.0373 22.5427 40.0308 22.615 40.0636C22.6872 40.1031 22.7956 40.1523 22.9402 40.2115C23.0059 40.2312 23.0946 40.2608 23.2063 40.3002C23.318 40.3396 23.4494 40.3725 23.6005 40.3987C23.7582 40.4316 23.9224 40.448 24.0933 40.448C24.6846 40.448 25.1412 40.2772 25.4632 39.9355C25.7917 39.6004 25.956 39.1568 25.956 38.6049V37.6586L26.0644 37.6882C26.0052 37.9248 25.9067 38.1317 25.7687 38.3092C25.6373 38.4866 25.4796 38.6377 25.2956 38.7626C25.1117 38.8808 24.9113 38.9695 24.6945 39.0287C24.4842 39.0944 24.274 39.1273 24.0637 39.1273C23.6104 39.1273 23.203 39.0123 22.8416 38.7823C22.4803 38.5523 22.1912 38.2402 21.9743 37.8459C21.7641 37.4516 21.659 37.0015 21.659 36.4956C21.659 35.9962 21.7641 35.5493 21.9743 35.1551C22.1912 34.7542 22.477 34.4421 22.8318 34.2187C23.1931 33.9887 23.6005 33.8737 24.0539 33.8737ZM24.1228 34.4257C23.7615 34.4257 23.4362 34.5177 23.1471 34.7017C22.8646 34.8791 22.6412 35.1255 22.477 35.4409C22.3193 35.7497 22.2404 36.1013 22.2404 36.4956C22.2404 36.8898 22.3193 37.2447 22.477 37.5601C22.6412 37.8755 22.8646 38.1252 23.1471 38.3092C23.4362 38.4866 23.7615 38.5753 24.1228 38.5753C24.4842 38.5753 24.8062 38.4866 25.0887 38.3092C25.3712 38.1317 25.5946 37.8886 25.7589 37.5798C25.9231 37.2644 26.0052 36.903 26.0052 36.4956C26.0052 36.0881 25.9231 35.73 25.7589 35.4212C25.5946 35.1058 25.3712 34.8626 25.0887 34.6918C24.8062 34.5144 24.4842 34.4257 24.1228 34.4257Z" fill="white"/>
<path d="M29.6816 39.0287C29.5896 39.0287 29.5173 38.9991 29.4647 38.94C29.4122 38.8808 29.3859 38.8118 29.3859 38.733V34.3173C29.3859 34.2384 29.4122 34.1694 29.4647 34.1103C29.5239 34.0511 29.5961 34.0216 29.6816 34.0216C29.767 34.0216 29.836 34.0511 29.8885 34.1103C29.9477 34.1694 29.9772 34.2384 29.9772 34.3173V35.7957L29.8294 35.8253C29.8491 35.5953 29.905 35.3686 29.9969 35.1452C30.0955 34.9152 30.2269 34.7049 30.3912 34.5144C30.5554 34.3238 30.7492 34.1694 30.9726 34.0511C31.2026 33.9328 31.4588 33.8737 31.7414 33.8737C31.8596 33.8737 31.9746 33.9 32.0863 33.9526C32.198 33.9986 32.2538 34.0774 32.2538 34.1891C32.2538 34.2877 32.2276 34.3632 32.175 34.4158C32.1224 34.4684 32.06 34.4947 31.9877 34.4947C31.9286 34.4947 31.8629 34.4782 31.7906 34.4454C31.7249 34.4125 31.6362 34.3961 31.5245 34.3961C31.3406 34.3961 31.1566 34.452 30.9726 34.5637C30.7887 34.6688 30.6211 34.8134 30.47 34.9974C30.3189 35.1813 30.1973 35.3883 30.1053 35.6183C30.0199 35.8417 29.9772 36.0684 29.9772 36.2984V38.733C29.9772 38.8118 29.9477 38.8808 29.8885 38.94C29.8294 38.9991 29.7604 39.0287 29.6816 39.0287Z" fill="white"/>
<path d="M38.4731 33.992C38.5585 33.992 38.6275 34.0216 38.6801 34.0807C38.7392 34.1398 38.7688 34.2121 38.7688 34.2975V38.733C38.7688 38.8118 38.7392 38.8808 38.6801 38.94C38.621 38.9991 38.552 39.0287 38.4731 39.0287C38.3877 39.0287 38.3154 38.9991 38.2563 38.94C38.2037 38.8808 38.1775 38.8118 38.1775 38.733V37.5601L38.345 37.4812C38.345 37.6652 38.2924 37.8525 38.1873 38.043C38.0888 38.2336 37.9508 38.411 37.7734 38.5753C37.596 38.7396 37.3857 38.8743 37.1426 38.9794C36.9061 39.078 36.6499 39.1273 36.3739 39.1273C35.9271 39.1273 35.5263 39.0123 35.1715 38.7823C34.8233 38.5523 34.5474 38.2369 34.3437 37.836C34.1466 37.4352 34.048 36.9851 34.048 36.4857C34.048 35.9732 34.1498 35.523 34.3535 35.1353C34.5572 34.7411 34.8332 34.4322 35.1814 34.2088C35.5296 33.9854 35.9238 33.8737 36.364 33.8737C36.6466 33.8737 36.9094 33.923 37.1525 34.0216C37.4022 34.1201 37.619 34.2548 37.8029 34.4257C37.9869 34.5965 38.1282 34.7937 38.2267 35.0171C38.3319 35.2339 38.3844 35.4606 38.3844 35.6972L38.1775 35.5493V34.2975C38.1775 34.2121 38.2037 34.1398 38.2563 34.0807C38.3154 34.0216 38.3877 33.992 38.4731 33.992ZM36.4232 38.5753C36.7714 38.5753 37.0802 38.4866 37.3496 38.3092C37.619 38.1252 37.8292 37.8755 37.9803 37.5601C38.138 37.2381 38.2169 36.88 38.2169 36.4857C38.2169 36.098 38.138 35.7497 37.9803 35.4409C37.8292 35.1321 37.619 34.8856 37.3496 34.7017C37.0802 34.5177 36.7714 34.4257 36.4232 34.4257C36.0815 34.4257 35.7727 34.5144 35.4968 34.6918C35.2274 34.8692 35.0138 35.1123 34.8562 35.4212C34.705 35.73 34.6295 36.0849 34.6295 36.4857C34.6295 36.88 34.705 37.2381 34.8562 37.5601C35.0138 37.8755 35.2274 38.1252 35.4968 38.3092C35.7661 38.4866 36.075 38.5753 36.4232 38.5753Z" fill="white"/>
<path d="M41.2765 34.0117H43.5728C43.6516 34.0117 43.7173 34.0413 43.7699 34.1004C43.8225 34.153 43.8487 34.2187 43.8487 34.2975C43.8487 34.3698 43.8225 34.4322 43.7699 34.4848C43.7173 34.5374 43.6516 34.5637 43.5728 34.5637H41.2765C41.1976 34.5637 41.1286 34.5374 41.0695 34.4848C41.0169 34.4257 40.9907 34.36 40.9907 34.2877C40.9907 34.2088 41.0169 34.1431 41.0695 34.0906C41.1286 34.038 41.1976 34.0117 41.2765 34.0117ZM42.2916 32.6219C42.377 32.6219 42.446 32.6515 42.4985 32.7106C42.5577 32.7698 42.5872 32.8388 42.5872 32.9176V37.8656C42.5872 38.0496 42.6102 38.1876 42.6562 38.2796C42.7088 38.3716 42.7745 38.434 42.8533 38.4669C42.9322 38.4931 43.011 38.5063 43.0899 38.5063C43.1424 38.5063 43.1884 38.4997 43.2278 38.4866C43.2738 38.4669 43.3231 38.457 43.3757 38.457C43.4348 38.457 43.4841 38.48 43.5235 38.526C43.5695 38.572 43.5925 38.6311 43.5925 38.7034C43.5925 38.7954 43.5399 38.8743 43.4348 38.94C43.3297 38.9991 43.2049 39.0287 43.0603 39.0287C43.0012 39.0287 42.9125 39.0254 42.7942 39.0188C42.6759 39.0057 42.5544 38.9695 42.4296 38.9104C42.3047 38.8447 42.1996 38.733 42.1142 38.5753C42.0353 38.4176 41.9959 38.1909 41.9959 37.8952V32.9176C41.9959 32.8388 42.0222 32.7698 42.0748 32.7106C42.1339 32.6515 42.2062 32.6219 42.2916 32.6219Z" fill="white"/>
<path d="M48.4511 39.1273C47.9452 39.1273 47.4984 39.0188 47.1108 38.802C46.7231 38.5851 46.4209 38.2829 46.2041 37.8952C45.9872 37.5075 45.8788 37.0541 45.8788 36.535C45.8788 35.9764 45.9872 35.5 46.2041 35.1058C46.4274 34.7115 46.7133 34.4092 47.0615 34.199C47.4163 33.9821 47.7908 33.8737 48.185 33.8737C48.4741 33.8737 48.7533 33.9263 49.0227 34.0314C49.2987 34.13 49.5418 34.2811 49.752 34.4848C49.9688 34.6819 50.1397 34.9251 50.2645 35.2142C50.3959 35.5033 50.4682 35.8384 50.4813 36.2196C50.4748 36.2984 50.4419 36.3674 50.3828 36.4266C50.3236 36.4791 50.2547 36.5054 50.1758 36.5054H46.2238L46.1055 35.9732H49.9886L49.8604 36.0914V35.8943C49.8342 35.5855 49.7356 35.3226 49.5648 35.1058C49.3939 34.8889 49.187 34.7247 48.9439 34.6129C48.7008 34.5012 48.4478 34.4454 48.185 34.4454C47.9879 34.4454 47.7842 34.4848 47.574 34.5637C47.3703 34.6425 47.183 34.7674 47.0122 34.9382C46.8479 35.1025 46.7133 35.316 46.6081 35.5789C46.503 35.8352 46.4504 36.1407 46.4504 36.4956C46.4504 36.8832 46.5293 37.2348 46.687 37.5502C46.8447 37.8656 47.0713 38.1153 47.367 38.2993C47.6692 38.4833 48.0273 38.5753 48.4413 38.5753C48.6712 38.5753 48.8782 38.5424 49.0621 38.4767C49.2461 38.411 49.4071 38.3256 49.5451 38.2204C49.683 38.1087 49.798 37.9937 49.89 37.8755C49.9623 37.8163 50.0346 37.7868 50.1068 37.7868C50.1725 37.7868 50.2284 37.813 50.2744 37.8656C50.3269 37.9182 50.3532 37.9773 50.3532 38.043C50.3532 38.1219 50.3204 38.1909 50.2547 38.25C50.0576 38.4866 49.8013 38.6936 49.4859 38.871C49.1706 39.0418 48.8256 39.1273 48.4511 39.1273Z" fill="white"/>
<path d="M57.1577 31.7348C57.2431 31.7348 57.3121 31.7644 57.3647 31.8235C57.4238 31.8761 57.4534 31.9451 57.4534 32.0305V38.733C57.4534 38.8118 57.4238 38.8808 57.3647 38.94C57.3056 38.9991 57.2366 39.0287 57.1577 39.0287C57.0723 39.0287 57 38.9991 56.9409 38.94C56.8884 38.8808 56.8621 38.8118 56.8621 38.733V37.5601L57.0296 37.4221C57.0296 37.6061 56.9803 37.7999 56.8818 38.0036C56.7832 38.2007 56.642 38.3847 56.458 38.5556C56.2806 38.7264 56.0703 38.8644 55.8272 38.9695C55.5907 39.0747 55.3345 39.1273 55.0585 39.1273C54.6183 39.1273 54.2208 39.0123 53.866 38.7823C53.5178 38.5523 53.2418 38.2402 53.0381 37.8459C52.8345 37.4516 52.7326 37.0015 52.7326 36.4956C52.7326 35.9962 52.8345 35.5493 53.0381 35.1551C53.2418 34.7542 53.5178 34.4421 53.866 34.2187C54.2142 33.9887 54.6084 33.8737 55.0487 33.8737C55.318 33.8737 55.5743 33.923 55.8174 34.0216C56.0605 34.1201 56.274 34.2548 56.458 34.4257C56.6485 34.5965 56.7964 34.7937 56.9015 35.0171C57.0132 35.2339 57.069 35.4606 57.069 35.6972L56.8621 35.5493V32.0305C56.8621 31.9517 56.8884 31.8827 56.9409 31.8235C57 31.7644 57.0723 31.7348 57.1577 31.7348ZM55.1078 38.5753C55.4626 38.5753 55.7714 38.4866 56.0342 38.3092C56.3036 38.1252 56.5138 37.8788 56.665 37.5699C56.8226 37.2545 56.9015 36.8964 56.9015 36.4956C56.9015 36.1013 56.8226 35.7497 56.665 35.4409C56.5138 35.1255 56.3036 34.8791 56.0342 34.7017C55.7648 34.5177 55.456 34.4257 55.1078 34.4257C54.7661 34.4257 54.4573 34.5177 54.1814 34.7017C53.912 34.8791 53.6985 35.1255 53.5408 35.4409C53.3897 35.7497 53.3141 36.1013 53.3141 36.4956C53.3141 36.8898 53.3897 37.2447 53.5408 37.5601C53.6985 37.8755 53.912 38.1252 54.1814 38.3092C54.4573 38.4866 54.7661 38.5753 55.1078 38.5753Z" fill="white"/>
<path d="M66.3123 39.1273C65.813 39.1338 65.3793 39.055 65.0114 38.8907C64.6435 38.7264 64.2919 38.48 63.9569 38.1515C63.924 38.1252 63.8944 38.0923 63.8682 38.0529C63.8484 38.0135 63.8386 37.9675 63.8386 37.9149C63.8386 37.836 63.8682 37.7638 63.9273 37.6981C63.993 37.6323 64.0653 37.5995 64.1441 37.5995C64.223 37.5995 64.2952 37.6323 64.3609 37.6981C64.6172 37.974 64.9063 38.1843 65.2282 38.3289C65.5567 38.4734 65.9082 38.5457 66.2828 38.5457C66.5981 38.5457 66.8774 38.4964 67.1205 38.3979C67.3701 38.2993 67.5672 38.158 67.7118 37.974C67.8563 37.79 67.9286 37.5765 67.9286 37.3334C67.9286 37.0311 67.8465 36.788 67.6822 36.604C67.518 36.4134 67.3012 36.259 67.0318 36.1407C66.7624 36.0159 66.4634 35.9042 66.1349 35.8056C65.8655 35.7267 65.6093 35.638 65.3662 35.5395C65.1231 35.4343 64.9063 35.3095 64.7157 35.1649C64.5252 35.0138 64.3774 34.8298 64.2722 34.6129C64.1671 34.3961 64.1145 34.1333 64.1145 33.8244C64.1145 33.4762 64.2065 33.1673 64.3905 32.8979C64.5745 32.6285 64.834 32.4182 65.1691 32.2671C65.5107 32.1094 65.905 32.0305 66.3517 32.0305C66.7394 32.0305 67.1106 32.0962 67.4654 32.2277C67.8268 32.3591 68.1126 32.5529 68.3228 32.8092C68.4214 32.9143 68.4707 33.0096 68.4707 33.095C68.4707 33.1608 68.4378 33.2265 68.3721 33.2922C68.3064 33.3579 68.2341 33.3907 68.1553 33.3907C68.0896 33.3907 68.0337 33.3677 67.9878 33.3217C67.8761 33.1837 67.7348 33.0622 67.564 32.957C67.3931 32.8453 67.2026 32.7599 66.9923 32.7008C66.7887 32.6416 66.5751 32.6121 66.3517 32.6121C66.0429 32.6121 65.7637 32.6614 65.514 32.7599C65.2709 32.8519 65.0771 32.9866 64.9326 33.164C64.7946 33.3415 64.7256 33.555 64.7256 33.8047C64.7256 34.0807 64.8044 34.3074 64.9621 34.4848C65.1198 34.6622 65.3268 34.8101 65.583 34.9284C65.8393 35.0401 66.1119 35.1452 66.401 35.2438C66.6835 35.3226 66.9529 35.4146 67.2092 35.5198C67.472 35.6183 67.7019 35.7432 67.8991 35.8943C68.1027 36.0454 68.2604 36.236 68.3721 36.466C68.4904 36.696 68.5495 36.9851 68.5495 37.3334C68.5495 37.6685 68.4542 37.9708 68.2637 38.2402C68.0732 38.5096 67.8104 38.7231 67.4753 38.8808C67.1468 39.0385 66.7591 39.1207 66.3123 39.1273Z" fill="white"/>
<path d="M76.2715 32.1291C76.3569 32.1291 76.4226 32.1554 76.4686 32.2079C76.5212 32.2605 76.5475 32.3262 76.5475 32.4051V38.7133C76.5475 38.8118 76.5146 38.8907 76.4489 38.9498C76.3898 39.0024 76.3208 39.0287 76.242 39.0287C76.2025 39.0287 76.1598 39.0221 76.1138 39.009C76.0678 38.9893 76.0317 38.963 76.0054 38.9301L71.6099 33.0063L71.7774 32.9176V38.7626C71.7774 38.8348 71.7511 38.8973 71.6986 38.9498C71.646 39.0024 71.5803 39.0287 71.5015 39.0287C71.4161 39.0287 71.3471 39.0024 71.2945 38.9498C71.2485 38.8973 71.2255 38.8348 71.2255 38.7626V32.4248C71.2255 32.3262 71.2551 32.2539 71.3142 32.2079C71.3733 32.1554 71.4391 32.1291 71.5113 32.1291C71.5507 32.1291 71.5935 32.139 71.6394 32.1587C71.6854 32.1718 71.7216 32.1981 71.7479 32.2375L76.0941 38.0923L75.9956 38.2697V32.4051C75.9956 32.3262 76.0219 32.2605 76.0744 32.2079C76.1335 32.1554 76.1992 32.1291 76.2715 32.1291Z" fill="white"/>
<path d="M79.9726 32.1291C80.0186 32.1291 80.0646 32.139 80.1106 32.1587C80.1632 32.1784 80.2059 32.2112 80.2387 32.2572L82.9589 36.3378L82.6928 36.328L85.4227 32.2572C85.495 32.1587 85.5837 32.116 85.6888 32.1291C85.7677 32.1291 85.8334 32.1587 85.8859 32.2178C85.9451 32.2704 85.9746 32.3394 85.9746 32.4248V38.733C85.9746 38.8118 85.9451 38.8808 85.8859 38.94C85.8268 38.9991 85.7545 39.0287 85.6691 39.0287C85.5771 39.0287 85.5016 38.9991 85.4424 38.94C85.3833 38.8808 85.3537 38.8118 85.3537 38.733V33.026L85.5311 33.0458L83.0377 36.8208C83.018 36.8602 82.9884 36.8931 82.949 36.9194C82.9096 36.9391 82.8636 36.9457 82.811 36.9391C82.765 36.9457 82.719 36.9391 82.673 36.9194C82.6336 36.8931 82.6008 36.8602 82.5745 36.8208L80.0712 33.0063L80.2585 32.8782V38.733C80.2585 38.8118 80.2289 38.8808 80.1698 38.94C80.1172 38.9991 80.0482 39.0287 79.9628 39.0287C79.8774 39.0287 79.8084 38.9991 79.7558 38.94C79.7033 38.8808 79.677 38.8118 79.677 38.733V32.4248C79.677 32.3459 79.7033 32.2769 79.7558 32.2178C79.815 32.1587 79.8872 32.1291 79.9726 32.1291Z" fill="white"/>
<path d="M91.7416 32.1291C92.1095 32.1291 92.4347 32.2145 92.7172 32.3854C92.9998 32.5496 93.2232 32.7796 93.3874 33.0753C93.5517 33.371 93.6338 33.7094 93.6338 34.0906C93.6338 34.4717 93.5517 34.8167 93.3874 35.1255C93.2232 35.4278 92.9998 35.6676 92.7172 35.845C92.4347 36.0224 92.1095 36.1111 91.7416 36.1111H89.6522L89.7015 36.0126V38.733C89.7015 38.8118 89.6719 38.8808 89.6128 38.94C89.5536 38.9991 89.4846 39.0287 89.4058 39.0287C89.3138 39.0287 89.2415 38.9991 89.189 38.94C89.1364 38.8808 89.1101 38.8118 89.1101 38.733V32.4248C89.1101 32.3459 89.1397 32.2769 89.1988 32.2178C89.258 32.1587 89.327 32.1291 89.4058 32.1291H91.7416ZM91.7416 35.5395C91.9978 35.5395 92.2212 35.477 92.4117 35.3522C92.6023 35.2208 92.7501 35.0466 92.8552 34.8298C92.9669 34.6064 93.0228 34.36 93.0228 34.0906C93.0228 33.8211 92.9669 33.5846 92.8552 33.3809C92.7501 33.1706 92.6023 33.0063 92.4117 32.888C92.2212 32.7698 91.9978 32.7106 91.7416 32.7106H89.6522L89.7015 32.6219V35.5986L89.6423 35.5395H91.7416Z" fill="white"/>
<path d="M96.0924 33.8836C96.145 33.8836 96.1976 33.9 96.2501 33.9328C96.3027 33.9657 96.3421 34.015 96.3684 34.0807L98.0931 38.181L97.965 38.2599L99.7291 34.0807C99.7817 33.9493 99.877 33.8868 100.015 33.8934C100.081 33.8934 100.143 33.9164 100.202 33.9624C100.261 34.0018 100.291 34.061 100.291 34.1398C100.291 34.1793 100.284 34.2121 100.271 34.2384C100.265 34.2581 100.258 34.2811 100.251 34.3074L98.3198 38.8414C98.2672 38.9597 98.1785 39.0221 98.0537 39.0287C97.9946 39.0353 97.9354 39.0221 97.8763 38.9893C97.8237 38.9498 97.7843 38.9006 97.758 38.8414L95.8165 34.3074C95.8099 34.2943 95.8034 34.2745 95.7968 34.2483C95.7902 34.222 95.7869 34.1957 95.7869 34.1694C95.7869 34.0971 95.8132 34.0314 95.8658 33.9723C95.9183 33.9131 95.9939 33.8836 96.0924 33.8836Z" fill="white"/>
<path d="M102.807 38.0135C102.84 38.0135 102.873 38.02 102.906 38.0332C102.945 38.0463 102.991 38.0759 103.043 38.1219C103.181 38.2664 103.346 38.3782 103.536 38.457C103.727 38.5293 103.944 38.5654 104.187 38.5654C104.509 38.5654 104.801 38.4931 105.064 38.3486C105.333 38.204 105.547 38.0036 105.704 37.7473C105.862 37.4845 105.941 37.1855 105.941 36.8504C105.941 36.4693 105.856 36.1637 105.685 35.9337C105.52 35.6972 105.307 35.523 105.044 35.4113C104.788 35.2931 104.525 35.2339 104.256 35.2339C104.183 35.2339 104.111 35.2405 104.039 35.2536C103.973 35.2602 103.911 35.2701 103.852 35.2832C103.793 35.2963 103.747 35.3029 103.714 35.3029C103.628 35.3029 103.563 35.2766 103.517 35.2241C103.471 35.1649 103.448 35.0926 103.448 35.0072C103.448 34.9612 103.457 34.9218 103.477 34.8889C103.497 34.8495 103.523 34.8068 103.556 34.7608L105.557 32.5825L105.675 32.7402H102.689C102.61 32.7402 102.541 32.7139 102.482 32.6614C102.429 32.6022 102.403 32.5332 102.403 32.4544C102.403 32.3755 102.429 32.3098 102.482 32.2572C102.541 32.2047 102.61 32.1784 102.689 32.1784H106C106.112 32.1784 106.191 32.2145 106.237 32.2868C106.283 32.3525 106.306 32.4182 106.306 32.4839C106.306 32.5234 106.296 32.5628 106.276 32.6022C106.256 32.6351 106.23 32.6712 106.197 32.7106L104.197 34.8889L103.98 34.7608C103.999 34.7411 104.065 34.7214 104.177 34.7017C104.295 34.6754 104.387 34.6622 104.453 34.6622C104.814 34.6622 105.153 34.7477 105.468 34.9185C105.79 35.0893 106.049 35.3358 106.247 35.6577C106.45 35.9732 106.552 36.3641 106.552 36.8307C106.552 37.2906 106.444 37.6948 106.227 38.043C106.01 38.3847 105.718 38.6509 105.35 38.8414C104.982 39.032 104.574 39.1273 104.128 39.1273C103.858 39.1273 103.592 39.0813 103.329 38.9893C103.066 38.8973 102.837 38.7593 102.639 38.5753C102.593 38.5359 102.561 38.4964 102.541 38.457C102.521 38.4176 102.511 38.3782 102.511 38.3387C102.511 38.2599 102.538 38.1876 102.59 38.1219C102.649 38.0496 102.722 38.0135 102.807 38.0135Z" fill="white"/>
<path d="M113.578 32.1291C113.624 32.1291 113.67 32.139 113.716 32.1587C113.768 32.1784 113.811 32.2112 113.844 32.2572L116.564 36.3378L116.298 36.328L119.028 32.2572C119.1 32.1587 119.189 32.116 119.294 32.1291C119.373 32.1291 119.438 32.1587 119.491 32.2178C119.55 32.2704 119.58 32.3394 119.58 32.4248V38.733C119.58 38.8118 119.55 38.8808 119.491 38.94C119.432 38.9991 119.359 39.0287 119.274 39.0287C119.182 39.0287 119.106 38.9991 119.047 38.94C118.988 38.8808 118.959 38.8118 118.959 38.733V33.026L119.136 33.0458L116.643 36.8208C116.623 36.8602 116.593 36.8931 116.554 36.9194C116.514 36.9391 116.468 36.9457 116.416 36.9391C116.37 36.9457 116.324 36.9391 116.278 36.9194C116.239 36.8931 116.206 36.8602 116.179 36.8208L113.676 33.0063L113.863 32.8782V38.733C113.863 38.8118 113.834 38.8808 113.775 38.94C113.722 38.9991 113.653 39.0287 113.568 39.0287C113.482 39.0287 113.413 38.9991 113.361 38.94C113.308 38.8808 113.282 38.8118 113.282 38.733V32.4248C113.282 32.3459 113.308 32.2769 113.361 32.2178C113.42 32.1587 113.492 32.1291 113.578 32.1291Z" fill="white"/>
<path d="M127.258 36.5054C127.258 37.0048 127.15 37.4549 126.933 37.8558C126.716 38.25 126.421 38.5621 126.046 38.7921C125.672 39.0155 125.245 39.1273 124.765 39.1273C124.298 39.1273 123.875 39.0155 123.494 38.7921C123.119 38.5621 122.82 38.25 122.597 37.8558C122.38 37.4549 122.272 37.0048 122.272 36.5054C122.272 35.9994 122.38 35.5493 122.597 35.1551C122.82 34.7608 123.119 34.4487 123.494 34.2187C123.875 33.9887 124.298 33.8737 124.765 33.8737C125.245 33.8737 125.672 33.9887 126.046 34.2187C126.421 34.4487 126.716 34.7608 126.933 35.1551C127.15 35.5493 127.258 35.9994 127.258 36.5054ZM126.667 36.5054C126.667 36.1046 126.585 35.7497 126.421 35.4409C126.256 35.1255 126.03 34.8791 125.741 34.7017C125.458 34.5177 125.133 34.4257 124.765 34.4257C124.41 34.4257 124.088 34.5177 123.799 34.7017C123.51 34.8791 123.28 35.1255 123.109 35.4409C122.945 35.7497 122.863 36.1046 122.863 36.5054C122.863 36.9062 122.945 37.2611 123.109 37.5699C123.28 37.8788 123.51 38.1252 123.799 38.3092C124.088 38.4866 124.41 38.5753 124.765 38.5753C125.133 38.5753 125.458 38.4866 125.741 38.3092C126.03 38.1252 126.256 37.8788 126.421 37.5699C126.585 37.2611 126.667 36.9062 126.667 36.5054Z" fill="white"/>
<path d="M132.172 33.8737C132.605 33.8737 132.95 33.9624 133.206 34.1398C133.469 34.3107 133.656 34.5472 133.768 34.8495C133.886 35.1452 133.946 35.4738 133.946 35.8352V38.733C133.946 38.8118 133.916 38.8808 133.857 38.94C133.798 38.9991 133.729 39.0287 133.65 39.0287C133.558 39.0287 133.486 38.9991 133.433 38.94C133.38 38.8808 133.354 38.8118 133.354 38.733V35.8647C133.354 35.6019 133.311 35.362 133.226 35.1452C133.141 34.9284 132.999 34.7542 132.802 34.6228C132.612 34.4914 132.359 34.4257 132.043 34.4257C131.761 34.4257 131.492 34.4914 131.235 34.6228C130.986 34.7542 130.782 34.9284 130.624 35.1452C130.467 35.362 130.388 35.6019 130.388 35.8647V38.733C130.388 38.8118 130.358 38.8808 130.299 38.94C130.24 38.9991 130.171 39.0287 130.092 39.0287C130 39.0287 129.928 38.9991 129.875 38.94C129.823 38.8808 129.796 38.8118 129.796 38.733V34.3173C129.796 34.2384 129.823 34.1694 129.875 34.1103C129.934 34.0511 130.007 34.0216 130.092 34.0216C130.177 34.0216 130.246 34.0511 130.299 34.1103C130.358 34.1694 130.388 34.2384 130.388 34.3173V35.1452L130.161 35.5C130.174 35.2898 130.24 35.0893 130.358 34.8988C130.483 34.7017 130.641 34.5275 130.831 34.3764C131.022 34.2187 131.232 34.0971 131.462 34.0117C131.698 33.9197 131.935 33.8737 132.172 33.8737Z" fill="white"/>
<path d="M137.347 38.733C137.347 38.8118 137.317 38.8808 137.258 38.94C137.199 38.9991 137.13 39.0287 137.051 39.0287C136.966 39.0287 136.894 38.9991 136.834 38.94C136.782 38.8808 136.756 38.8118 136.756 38.733V34.199C136.756 34.1201 136.782 34.0511 136.834 33.992C136.894 33.9328 136.966 33.9033 137.051 33.9033C137.137 33.9033 137.206 33.9328 137.258 33.992C137.317 34.0511 137.347 34.1201 137.347 34.199V38.733ZM137.051 33.2429C136.913 33.2429 136.808 33.2133 136.736 33.1542C136.67 33.0885 136.637 32.9965 136.637 32.8782V32.7796C136.637 32.6613 136.673 32.5726 136.746 32.5135C136.825 32.4478 136.93 32.4149 137.061 32.4149C137.186 32.4149 137.281 32.4478 137.347 32.5135C137.419 32.5726 137.455 32.6613 137.455 32.7796V32.8782C137.455 32.9965 137.419 33.0885 137.347 33.1542C137.281 33.2133 137.183 33.2429 137.051 33.2429Z" fill="white"/>
<path d="M139.839 34.0117H142.135C142.214 34.0117 142.28 34.0413 142.332 34.1004C142.385 34.153 142.411 34.2187 142.411 34.2975C142.411 34.3698 142.385 34.4322 142.332 34.4848C142.28 34.5374 142.214 34.5637 142.135 34.5637H139.839C139.76 34.5637 139.691 34.5374 139.632 34.4848C139.579 34.4257 139.553 34.36 139.553 34.2877C139.553 34.2088 139.579 34.1431 139.632 34.0906C139.691 34.038 139.76 34.0117 139.839 34.0117ZM140.854 32.6219C140.94 32.6219 141.009 32.6515 141.061 32.7106C141.12 32.7698 141.15 32.8388 141.15 32.9176V37.8656C141.15 38.0496 141.173 38.1876 141.219 38.2796C141.271 38.3716 141.337 38.434 141.416 38.4669C141.495 38.4931 141.574 38.5063 141.652 38.5063C141.705 38.5063 141.751 38.4997 141.79 38.4866C141.836 38.4669 141.886 38.457 141.938 38.457C141.997 38.457 142.047 38.48 142.086 38.526C142.132 38.572 142.155 38.6311 142.155 38.7034C142.155 38.7954 142.102 38.8743 141.997 38.94C141.892 38.9991 141.767 39.0287 141.623 39.0287C141.564 39.0287 141.475 39.0254 141.357 39.0188C141.238 39.0057 141.117 38.9695 140.992 38.9104C140.867 38.8447 140.762 38.733 140.677 38.5753C140.598 38.4176 140.558 38.1909 140.558 37.8952V32.9176C140.558 32.8388 140.585 32.7698 140.637 32.7106C140.696 32.6515 140.769 32.6219 140.854 32.6219Z" fill="white"/>
<path d="M149.428 36.5054C149.428 37.0048 149.32 37.4549 149.103 37.8558C148.886 38.25 148.591 38.5621 148.216 38.7921C147.842 39.0155 147.414 39.1273 146.935 39.1273C146.468 39.1273 146.045 39.0155 145.663 38.7921C145.289 38.5621 144.99 38.25 144.767 37.8558C144.55 37.4549 144.441 37.0048 144.441 36.5054C144.441 35.9994 144.55 35.5493 144.767 35.1551C144.99 34.7608 145.289 34.4487 145.663 34.2187C146.045 33.9887 146.468 33.8737 146.935 33.8737C147.414 33.8737 147.842 33.9887 148.216 34.2187C148.591 34.4487 148.886 34.7608 149.103 35.1551C149.32 35.5493 149.428 35.9994 149.428 36.5054ZM148.837 36.5054C148.837 36.1046 148.755 35.7497 148.591 35.4409C148.426 35.1255 148.2 34.8791 147.911 34.7017C147.628 34.5177 147.303 34.4257 146.935 34.4257C146.58 34.4257 146.258 34.5177 145.969 34.7017C145.68 34.8791 145.45 35.1255 145.279 35.4409C145.115 35.7497 145.033 36.1046 145.033 36.5054C145.033 36.9062 145.115 37.2611 145.279 37.5699C145.45 37.8788 145.68 38.1252 145.969 38.3092C146.258 38.4866 146.58 38.5753 146.935 38.5753C147.303 38.5753 147.628 38.4866 147.911 38.3092C148.2 38.1252 148.426 37.8788 148.591 37.5699C148.755 37.2611 148.837 36.9062 148.837 36.5054Z" fill="white"/>
<path d="M152.262 39.0287C152.17 39.0287 152.098 38.9991 152.045 38.94C151.992 38.8808 151.966 38.8118 151.966 38.733V34.3173C151.966 34.2384 151.992 34.1694 152.045 34.1103C152.104 34.0511 152.176 34.0216 152.262 34.0216C152.347 34.0216 152.416 34.0511 152.469 34.1103C152.528 34.1694 152.558 34.2384 152.558 34.3173V35.7957L152.41 35.8253C152.429 35.5953 152.485 35.3686 152.577 35.1452C152.676 34.9152 152.807 34.7049 152.971 34.5144C153.136 34.3238 153.33 34.1694 153.553 34.0511C153.783 33.9328 154.039 33.8737 154.322 33.8737C154.44 33.8737 154.555 33.9 154.667 33.9526C154.778 33.9986 154.834 34.0774 154.834 34.1891C154.834 34.2877 154.808 34.3632 154.755 34.4158C154.703 34.4684 154.64 34.4947 154.568 34.4947C154.509 34.4947 154.443 34.4782 154.371 34.4454C154.305 34.4125 154.217 34.3961 154.105 34.3961C153.921 34.3961 153.737 34.452 153.553 34.5637C153.369 34.6688 153.201 34.8134 153.05 34.9974C152.899 35.1813 152.778 35.3883 152.686 35.6183C152.6 35.8417 152.558 36.0684 152.558 36.2984V38.733C152.558 38.8118 152.528 38.8808 152.469 38.94C152.41 38.9991 152.341 39.0287 152.262 39.0287Z" fill="white"/>
<path d="M157.611 38.733C157.611 38.8118 157.582 38.8808 157.522 38.94C157.463 38.9991 157.394 39.0287 157.315 39.0287C157.23 39.0287 157.158 38.9991 157.099 38.94C157.046 38.8808 157.02 38.8118 157.02 38.733V34.199C157.02 34.1201 157.046 34.0511 157.099 33.992C157.158 33.9328 157.23 33.9033 157.315 33.9033C157.401 33.9033 157.47 33.9328 157.522 33.992C157.582 34.0511 157.611 34.1201 157.611 34.199V38.733ZM157.315 33.2429C157.177 33.2429 157.072 33.2133 157 33.1542C156.934 33.0885 156.901 32.9965 156.901 32.8782V32.7796C156.901 32.6613 156.938 32.5726 157.01 32.5135C157.089 32.4478 157.194 32.4149 157.325 32.4149C157.45 32.4149 157.545 32.4478 157.611 32.5135C157.683 32.5726 157.719 32.6613 157.719 32.7796V32.8782C157.719 32.9965 157.683 33.0885 157.611 33.1542C157.545 33.2133 157.447 33.2429 157.315 33.2429Z" fill="white"/>
<path d="M162.804 33.8737C163.237 33.8737 163.582 33.9624 163.838 34.1398C164.101 34.3107 164.289 34.5472 164.4 34.8495C164.518 35.1452 164.578 35.4738 164.578 35.8352V38.733C164.578 38.8118 164.548 38.8808 164.489 38.94C164.43 38.9991 164.361 39.0287 164.282 39.0287C164.19 39.0287 164.118 38.9991 164.065 38.94C164.013 38.8808 163.986 38.8118 163.986 38.733V35.8647C163.986 35.6019 163.944 35.362 163.858 35.1452C163.773 34.9284 163.631 34.7542 163.434 34.6228C163.244 34.4914 162.991 34.4257 162.675 34.4257C162.393 34.4257 162.124 34.4914 161.867 34.6228C161.618 34.7542 161.414 34.9284 161.256 35.1452C161.099 35.362 161.02 35.6019 161.02 35.8647V38.733C161.02 38.8118 160.99 38.8808 160.931 38.94C160.872 38.9991 160.803 39.0287 160.724 39.0287C160.632 39.0287 160.56 38.9991 160.507 38.94C160.455 38.8808 160.428 38.8118 160.428 38.733V34.3173C160.428 34.2384 160.455 34.1694 160.507 34.1103C160.566 34.0511 160.639 34.0216 160.724 34.0216C160.81 34.0216 160.879 34.0511 160.931 34.1103C160.99 34.1694 161.02 34.2384 161.02 34.3173V35.1452L160.793 35.5C160.806 35.2898 160.872 35.0893 160.99 34.8988C161.115 34.7017 161.273 34.5275 161.463 34.3764C161.654 34.2187 161.864 34.0971 162.094 34.0117C162.331 33.9197 162.567 33.8737 162.804 33.8737Z" fill="white"/>
<path d="M169.507 33.8737C169.802 33.8737 170.075 33.9263 170.325 34.0314C170.574 34.13 170.791 34.2614 170.975 34.4257C171.166 34.5834 171.313 34.7542 171.419 34.9382C171.524 35.1156 171.576 35.2865 171.576 35.4508L171.409 35.2142V34.2975C171.409 34.2121 171.435 34.1398 171.488 34.0807C171.547 34.0216 171.619 33.992 171.704 33.992C171.796 33.992 171.869 34.0216 171.921 34.0807C171.974 34.1398 172 34.2121 172 34.2975V38.5654C172 39.0911 171.892 39.5347 171.675 39.8961C171.458 40.2575 171.162 40.5302 170.788 40.7142C170.42 40.9047 169.999 41 169.526 41C169.296 41 169.053 40.9704 168.797 40.9113C168.547 40.8521 168.33 40.7766 168.147 40.6846C167.969 40.5926 167.871 40.4973 167.851 40.3987C167.798 40.3396 167.772 40.2805 167.772 40.2213C167.779 40.1688 167.808 40.1228 167.861 40.0833C167.926 40.0373 167.995 40.0308 168.068 40.0636C168.14 40.1031 168.248 40.1523 168.393 40.2115C168.459 40.2312 168.547 40.2608 168.659 40.3002C168.771 40.3396 168.902 40.3725 169.053 40.3987C169.211 40.4316 169.375 40.448 169.546 40.448C170.137 40.448 170.594 40.2772 170.916 39.9355C171.244 39.6004 171.409 39.1568 171.409 38.6049V37.6586L171.517 37.6882C171.458 37.9248 171.359 38.1317 171.221 38.3092C171.09 38.4866 170.932 38.6377 170.748 38.7626C170.564 38.8808 170.364 38.9695 170.147 39.0287C169.937 39.0944 169.727 39.1273 169.516 39.1273C169.063 39.1273 168.656 39.0123 168.294 38.7823C167.933 38.5523 167.644 38.2402 167.427 37.8459C167.217 37.4516 167.112 37.0015 167.112 36.4956C167.112 35.9962 167.217 35.5493 167.427 35.1551C167.644 34.7542 167.93 34.4421 168.284 34.2187C168.646 33.9887 169.053 33.8737 169.507 33.8737ZM169.576 34.4257C169.214 34.4257 168.889 34.5177 168.6 34.7017C168.317 34.8791 168.094 35.1255 167.93 35.4409C167.772 35.7497 167.693 36.1013 167.693 36.4956C167.693 36.8898 167.772 37.2447 167.93 37.5601C168.094 37.8755 168.317 38.1252 168.6 38.3092C168.889 38.4866 169.214 38.5753 169.576 38.5753C169.937 38.5753 170.259 38.4866 170.541 38.3092C170.824 38.1317 171.047 37.8886 171.212 37.5798C171.376 37.2644 171.458 36.903 171.458 36.4956C171.458 36.0881 171.376 35.73 171.212 35.4212C171.047 35.1058 170.824 34.8626 170.541 34.6918C170.259 34.5144 169.937 34.4257 169.576 34.4257Z" fill="white"/>
</svg>
