<svg width="696" height="696" viewBox="0 0 696 696" fill="none" xmlns="http://www.w3.org/2000/svg">
<path fill-rule="evenodd" clip-rule="evenodd" d="M341.877 94.8783C398.033 85.3147 446.599 34.3993 502.451 45.601C559.589 57.0607 603.305 105.531 635.79 153.826C669.415 203.815 713.006 267.884 689.171 323.195C662.559 384.949 564.42 375.673 518.855 425.179C487.453 459.299 513.632 527.906 475.909 554.905C438.963 581.348 385.582 539.346 341.877 551.845C273.437 571.418 220.967 672.759 154.709 646.764C93.434 622.724 134.061 518.585 105.808 459.23C80.7599 406.609 -8.69872 380.695 0.687001 323.195C10.7371 261.624 104.145 256.516 146.4 210.55C176.616 177.681 171.658 118.139 210.103 95.3891C248.542 72.6433 297.827 102.38 341.877 94.8783Z" fill="#535C91"/>
<path d="M696 532.298H0V532.646H696V532.298Z" fill="#E6E6E6"/>
<path d="M158.497 543.46H110.607V543.808H158.497V543.46Z" fill="#E6E6E6"/>
<path d="M181.969 543.46H167.661V543.808H181.969V543.46Z" fill="#E6E6E6"/>
<path d="M252.57 536.623H225.622V536.971H252.57V536.623Z" fill="#E6E6E6"/>
<path d="M599.416 551.185H539.292V551.533H599.416V551.185Z" fill="#E6E6E6"/>
<path d="M620.626 551.185H611.811V551.533H620.626V551.185Z" fill="#E6E6E6"/>
<path d="M554.493 538.974H424.096V539.322H554.493V538.974Z" fill="#E6E6E6"/>
<path d="M329.924 470.218H61.1297C56.7491 470.218 53.1842 466.653 53.1842 462.272V84.4387C53.1842 80.0581 56.7491 76.4932 61.1297 76.4932H329.924C334.303 76.4932 337.868 80.0581 337.868 84.4387V462.272C337.868 466.653 334.303 470.218 329.924 470.218ZM61.1297 76.8426C56.9398 76.8426 53.5322 80.2502 53.5322 84.4401V462.273C53.5322 466.463 56.9398 469.871 61.1297 469.871H329.924C334.112 469.871 337.52 466.463 337.52 462.273V84.4387C337.52 80.2502 334.112 76.8412 329.924 76.8412L61.1297 76.8426Z" fill="#E6E6E6"/>
<path d="M631.008 470.218H362.215C357.836 470.218 354.271 466.653 354.271 462.272V84.4387C354.271 80.0581 357.836 76.4932 362.215 76.4932H631.008C635.39 76.4932 638.953 80.0581 638.953 84.4387V462.272C638.954 466.653 635.39 470.218 631.008 470.218ZM362.215 76.8426C358.027 76.8426 354.619 80.2502 354.619 84.4401V462.273C354.619 466.463 358.027 469.871 362.215 469.871H631.008C635.197 469.871 638.605 466.463 638.605 462.273V84.4387C638.605 80.2502 635.197 76.8412 631.008 76.8412L362.215 76.8426Z" fill="#E6E6E6"/>
<path d="M583.266 342.586H485.734V532.298H583.266V342.586Z" fill="#F5F5F5"/>
<path d="M583.266 342.586H575.223V532.298H583.266V342.586Z" fill="#F0F0F0"/>
<path d="M268.675 388.987H493.251V348.001H268.675V388.987Z" fill="#E0E0E0"/>
<path d="M362.325 532.44H266.046C265.278 532.44 264.654 531.818 264.654 531.048C264.654 530.278 265.278 529.656 266.046 529.656H362.325C376.244 529.656 378.101 525.598 378.101 509.472V306.24C378.101 305.472 378.723 304.848 379.493 304.848C380.262 304.848 380.885 305.472 380.885 306.24V509.472C380.885 526.705 378.202 532.44 362.325 532.44Z" fill="#E0E0E0"/>
<path d="M277.322 357.542L581.087 357.542V343.313L277.322 343.313V357.542Z" fill="#F0F0F0"/>
<path d="M279.501 342.586H181.969V532.298H279.501V342.586Z" fill="#F5F5F5"/>
<path d="M279.501 342.586H271.458V532.298H279.501V342.586Z" fill="#F0F0F0"/>
<path d="M210.436 532.299L210.436 194.458L126.735 194.458L126.735 532.299H210.436Z" fill="#FAFAFA"/>
<path d="M205.843 278.835V204.323H131.33V278.835H205.843Z" fill="#F5F5F5"/>
<path d="M152.094 203.335H185.078C185.078 207.601 181.618 211.061 177.352 211.061H159.82C155.553 211.062 152.094 207.603 152.094 203.335Z" fill="#E0E0E0"/>
<path d="M205.843 360.035V285.523H131.331V360.035H205.843Z" fill="#F5F5F5"/>
<path d="M205.842 441.235V366.723H131.33V441.235H205.842Z" fill="#F5F5F5"/>
<path d="M205.843 522.435V447.923H131.33V522.435H205.843Z" fill="#F5F5F5"/>
<path d="M152.094 284.536H185.078C185.078 288.802 181.618 292.262 177.352 292.262H159.82C155.553 292.262 152.094 288.802 152.094 284.536Z" fill="#E0E0E0"/>
<path d="M152.094 365.735H185.078C185.078 370.002 181.618 373.461 177.352 373.461H159.82C155.553 373.461 152.094 370.002 152.094 365.735Z" fill="#E0E0E0"/>
<path d="M152.094 446.935H185.078C185.078 451.201 181.618 454.661 177.352 454.661H159.82C155.553 454.662 152.094 451.203 152.094 446.935Z" fill="#E0E0E0"/>
<path d="M126.736 532.299L126.736 194.458H84.9303L84.9303 532.299H126.736Z" fill="#F0F0F0"/>
<path d="M368.035 342.586H346.992L352.112 301.632H373.155L368.035 342.586Z" fill="#F0F0F0"/>
<path d="M372.689 342.586H351.646L356.764 301.632H377.807L372.689 342.586Z" fill="#F5F5F5"/>
<path d="M417.826 342.586H402.614L399.693 337.947H414.905L417.826 342.586Z" fill="#F0F0F0"/>
<path d="M499.338 342.586H407.263L404.343 337.947H486.927L499.338 342.586Z" fill="#FAFAFA"/>
<path d="M301.31 330.832H307.96C314.453 330.832 319.715 336.096 319.715 342.586H289.554C289.554 336.094 294.817 330.832 301.31 330.832Z" fill="#F0F0F0"/>
<path d="M375.247 322.109H354.206L356.764 301.632H377.807L375.247 322.109Z" fill="#F0F0F0"/>
<path d="M297.928 317.208H446.775C448.017 317.208 448.976 316.12 448.823 314.888L437.352 223.119C437.223 222.087 436.346 221.311 435.305 221.311H286.458C285.217 221.311 284.258 222.4 284.411 223.63L295.881 315.398C296.009 316.432 296.887 317.208 297.928 317.208Z" fill="#F0F0F0"/>
<path d="M300.139 317.208H448.985C450.227 317.208 451.188 316.12 451.033 314.888L439.563 223.119C439.434 222.087 438.557 221.311 437.515 221.311H288.669C287.427 221.311 286.467 222.4 286.621 223.63L298.091 315.398C298.221 316.432 299.099 317.208 300.139 317.208Z" fill="#F5F5F5"/>
<path d="M446.232 312.135L435.496 226.24C435.459 225.952 435.214 225.735 434.923 225.735H291.994C291.648 225.735 291.379 226.04 291.422 226.384L302.16 312.278C302.196 312.568 302.441 312.784 302.732 312.784H445.659C446.007 312.784 446.275 312.479 446.232 312.135Z" fill="#E0E0E0"/>
<path d="M360.978 338.749H388.425C390.31 338.749 391.838 340.277 391.838 342.162V342.587H357.566V342.162C357.565 340.276 359.093 338.749 360.978 338.749Z" fill="#FAFAFA"/>
<path d="M341.694 338.749H358.118C360.003 338.749 361.532 340.277 361.532 342.162V342.587H338.281V342.162C338.282 340.276 339.809 338.749 341.694 338.749Z" fill="#F0F0F0"/>
<path d="M162.108 156.303C162.117 156.284 162.112 156.263 162.118 156.242C162.439 155.168 162.736 154.082 163.003 152.989C164.624 155.088 166.198 155.623 167.371 155.623C167.501 155.623 167.626 155.616 167.747 155.605C170.072 155.379 172.3 153.127 173.709 149.577C173.762 149.444 173.755 149.295 173.691 149.167C173.626 149.039 173.509 148.945 173.371 148.909C168.845 147.727 165.254 149.487 163.538 150.614C163.747 149.582 163.925 148.547 164.071 147.512C164.45 147.578 164.823 147.623 165.185 147.623C168.979 147.623 171.763 144.242 171.895 144.079C171.996 143.955 172.032 143.791 171.99 143.638C171.95 143.483 171.838 143.358 171.691 143.299C169.43 142.403 167.515 142.325 165.999 143.07C165.061 143.53 164.303 144.306 163.755 145.337C162.939 142.893 160.541 138.22 153.88 136.902C153.734 136.873 153.589 136.909 153.476 136.998C153.362 137.086 153.291 137.221 153.284 137.365C153.089 140.809 153.198 145.021 155.783 147.03C156.763 147.791 157.995 148.171 159.502 148.171C160.545 148.171 161.728 147.978 163.044 147.615C162.682 150.085 162.133 152.555 161.448 154.974C160.102 153.192 156.592 149.203 151.266 147.828C150.999 147.755 150.726 147.918 150.656 148.184C149.875 151.148 150.275 153.554 151.813 155.143C153.081 156.452 155.063 157.122 157.57 157.122C158.598 157.122 159.718 157.004 160.908 156.777C160.275 158.805 159.564 160.787 158.806 162.69C157.26 161.322 152.708 157.849 147.762 159.295C147.626 159.335 147.513 159.431 147.452 159.558C147.391 159.686 147.385 159.834 147.439 159.966C148.787 163.247 150.312 165.068 152.239 165.694C152.743 165.857 153.268 165.94 153.823 165.94C155.041 165.94 156.404 165.537 157.967 164.726C156.898 167.24 155.776 169.589 154.7 171.685C153.533 170.425 150.358 167.831 144.725 169.035C144.477 169.088 144.309 169.316 144.331 169.568C144.513 171.611 145.964 173.559 147.939 174.413C148.487 174.65 149.28 174.887 150.258 174.887C151.173 174.887 152.251 174.67 153.443 174.063C152.346 176.081 151.349 177.768 150.569 179.043H141.1C139.602 176.468 137.867 173.272 136.168 169.672C136.999 169.916 137.816 170.048 138.6 170.048C140.276 170.048 141.807 169.494 143.039 168.403C144.935 166.72 145.756 164.065 145.081 161.796C145.013 161.565 144.79 161.414 144.548 161.441C139.03 162.023 136.25 165.69 135.187 167.534C134.071 165.031 132.996 162.373 132.048 159.619C133.503 160.372 134.812 160.769 135.986 160.769C136.552 160.769 137.091 160.681 137.602 160.507C140.328 159.579 141.976 156.23 143.35 152.748C143.402 152.616 143.396 152.469 143.331 152.342C143.269 152.215 143.155 152.121 143.018 152.083C137.407 150.521 132.858 155.886 131.447 157.8C130.712 155.489 130.078 153.127 129.59 150.749C130.854 150.979 132.045 151.099 133.142 151.099C135.997 151.099 138.247 150.329 139.662 148.826C141.342 147.043 141.75 144.375 140.841 141.113C140.767 140.848 140.499 140.694 140.227 140.763C134.494 142.328 130.728 146.685 129.215 148.745C129.143 148.319 129.07 147.893 129.009 147.468C128.993 147.354 128.935 147.26 128.863 147.18C128.26 145.364 127.205 144.047 125.792 143.377C124.12 142.585 122.02 142.699 119.551 143.717C119.403 143.778 119.293 143.905 119.255 144.059C119.218 144.214 119.254 144.378 119.356 144.501C119.502 144.677 122.566 148.295 126.685 148.295C127.111 148.295 127.552 148.24 127.999 148.153C128.181 149.337 128.402 150.518 128.66 151.697C126.775 150.484 122.777 148.563 117.773 149.941C117.635 149.978 117.52 150.074 117.456 150.202C117.393 150.33 117.389 150.481 117.443 150.613C119.042 154.494 121.522 156.937 124.073 157.148C124.186 157.158 124.303 157.162 124.424 157.162C125.719 157.162 127.471 156.568 129.251 154.177C129.959 156.905 130.827 159.589 131.793 162.174C129.385 161.036 123.969 159.062 120.096 162.059C119.88 162.225 119.839 162.533 119.999 162.751C122.499 166.163 124.815 167.821 127.08 167.821C127.099 167.821 127.117 167.821 127.137 167.821C129.019 167.797 130.817 166.635 132.617 164.298C133.646 166.863 134.748 169.308 135.855 171.572C133.448 170.075 130.799 170.313 127.678 172.282C127.538 172.371 127.45 172.524 127.445 172.69C127.439 172.856 127.518 173.014 127.653 173.112C127.829 173.239 130.812 175.353 133.948 175.353C135.071 175.353 136.214 175.077 137.254 174.348C138.144 176.059 139.014 177.636 139.822 179.043H135.52V181.489H137.086L138.377 194.461H157.427L158.719 181.489H160.285V179.043H151.739C152.691 177.469 153.9 175.371 155.194 172.898C155.232 172.849 155.258 172.797 155.276 172.74C155.601 172.117 155.93 171.471 156.263 170.801C157.633 172.657 159.452 173.678 161.415 173.678C161.627 173.678 161.84 173.666 162.053 173.642C164.349 173.387 166.448 171.746 167.154 169.654C167.231 169.426 167.135 169.175 166.925 169.057C162.909 166.812 159.209 167.825 157.29 168.677C158.01 167.149 158.727 165.53 159.413 163.845C159.459 163.78 159.493 163.705 159.504 163.623C159.696 163.149 159.885 162.67 160.072 162.186C161.732 164.275 163.38 165.306 165.091 165.306H165.097C167.179 165.303 169.285 163.766 171.535 160.609C171.692 160.388 171.645 160.083 171.428 159.919C167.891 157.256 163.031 159.074 160.833 160.14C161.28 158.89 161.702 157.616 162.089 156.324C162.098 156.315 162.105 156.31 162.108 156.303Z" fill="#E0E0E0"/>
<path d="M560.233 150.429H489.046V228.597H560.233V150.429Z" fill="#E0E0E0"/>
<path d="M551.452 153.638C551.391 153.638 551.33 153.623 551.274 153.589C551.104 153.487 534.297 143.493 528.952 143.493C523.611 143.493 507.579 153.485 507.418 153.585C507.257 153.688 507.04 153.639 506.937 153.475C506.836 153.312 506.884 153.098 507.047 152.995C507.713 152.579 523.412 142.796 528.95 142.796C534.486 142.796 550.931 152.574 551.629 152.991C551.795 153.089 551.847 153.304 551.75 153.468C551.686 153.578 551.57 153.638 551.452 153.638Z" fill="#EBEBEB"/>
<path d="M567.943 150.429H494.412V228.597H567.943V150.429Z" fill="#F5F5F5"/>
<path d="M561.783 222.436V156.589H500.572V222.436H561.783Z" fill="white"/>
<path d="M543.028 201.371C549.576 194.823 549.576 184.207 543.028 177.659C536.481 171.112 525.865 171.112 519.317 177.659C512.769 184.207 512.769 194.823 519.317 201.371C525.865 207.918 536.481 207.918 543.028 201.371Z" fill="#E0E0E0"/>
<path d="M529.752 437.443H592.142C604.053 437.443 613.776 427.916 614.018 416.008L616.344 301.786C616.525 292.859 609.338 285.523 600.41 285.523H561.3C553.196 285.523 546.382 291.603 545.465 299.656L529.752 437.443Z" fill="#E6E6E6"/>
<path d="M502.724 425.488H563.778V437.443H497.294C495.573 437.443 494.178 436.048 494.178 434.328V434.034C494.178 429.314 498.005 425.488 502.724 425.488Z" fill="#E6E6E6"/>
<path d="M558.557 533.864C557.911 533.864 557.332 533.413 557.194 532.755L537.695 438.834H503.737L484.239 532.755C484.082 533.508 483.34 533.985 482.593 533.835C481.839 533.679 481.355 532.941 481.512 532.188L501.241 437.158C501.376 436.512 501.945 436.048 502.604 436.048H538.828C539.488 436.048 540.057 436.512 540.191 437.158L559.921 532.188C560.077 532.941 559.594 533.677 558.841 533.835C558.745 533.856 558.65 533.864 558.557 533.864Z" fill="#E6E6E6"/>
<path d="M537.384 533.864C537.291 533.864 537.195 533.854 537.1 533.835C536.347 533.679 535.863 532.941 536.02 532.188L555.75 437.158C555.885 436.512 556.455 436.048 557.113 436.048H593.336C593.996 436.048 594.565 436.512 594.7 437.158L614.429 532.188C614.585 532.941 614.102 533.677 613.349 533.835C612.594 533.985 611.859 533.508 611.702 532.755L592.204 438.834H558.245L538.746 532.755C538.609 533.413 538.03 533.864 537.384 533.864Z" fill="#E6E6E6"/>
<path d="M348 595.165C497.058 595.165 617.893 588.108 617.893 579.403C617.893 570.698 497.058 563.642 348 563.642C198.942 563.642 78.1064 570.698 78.1064 579.403C78.1064 588.108 198.942 595.165 348 595.165Z" fill="#F5F5F5"/>
<path d="M371.812 566.481C370.932 566.481 370.145 565.865 369.963 564.97L343.508 434.73H297.459L271.004 564.97C270.797 565.99 269.806 566.651 268.779 566.444C267.757 566.238 267.097 565.24 267.304 564.217L294.067 432.467C294.245 431.585 295.019 430.953 295.917 430.953H345.053C345.951 430.953 346.725 431.585 346.903 432.467L373.664 564.218C373.872 565.238 373.212 566.236 372.19 566.444C372.062 566.469 371.936 566.481 371.812 566.481Z" fill="#407BFF"/>
<path d="M297.874 566.481C296.994 566.481 296.208 565.865 296.026 564.97L269.571 434.73H223.522L197.067 564.97C196.86 565.99 195.868 566.651 194.841 566.444C193.819 566.238 193.16 565.24 193.367 564.217L220.13 432.467C220.308 431.585 221.082 430.953 221.98 430.953H271.116C272.014 430.953 272.788 431.585 272.966 432.465L299.728 564.217C299.936 565.238 299.276 566.236 298.254 566.444C298.125 566.469 297.999 566.481 297.874 566.481Z" fill="#407BFF"/>
<path d="M308.228 432.841H223.598C207.441 432.841 194.252 419.918 193.924 403.764L190.769 275.144C190.523 263.034 200.273 253.085 212.384 253.085H265.436C276.429 253.085 285.672 261.334 286.916 272.256L308.228 432.841Z" fill="#407BFF"/>
<path d="M344.89 416.626H262.072V432.841H352.255C354.59 432.841 356.481 430.949 356.481 428.615V428.217C356.481 421.815 351.292 416.626 344.89 416.626Z" fill="#407BFF"/>
<g opacity="0.3">
<path d="M371.812 566.481C370.932 566.481 370.145 565.865 369.963 564.97L343.508 434.73H297.459L271.004 564.97C270.797 565.99 269.806 566.651 268.779 566.444C267.757 566.238 267.097 565.24 267.304 564.217L294.067 432.467C294.245 431.585 295.019 430.953 295.917 430.953H345.053C345.951 430.953 346.725 431.585 346.903 432.467L373.664 564.218C373.872 565.238 373.212 566.236 372.19 566.444C372.062 566.469 371.936 566.481 371.812 566.481Z" fill="black"/>
<path d="M297.874 566.481C296.994 566.481 296.208 565.865 296.026 564.97L269.571 434.73H223.522L197.067 564.97C196.86 565.99 195.868 566.651 194.841 566.444C193.819 566.238 193.16 565.24 193.367 564.217L220.13 432.467C220.308 431.585 221.082 430.953 221.98 430.953H271.116C272.014 430.953 272.788 431.585 272.966 432.465L299.728 564.217C299.936 565.238 299.276 566.236 298.254 566.444C298.125 566.469 297.999 566.481 297.874 566.481Z" fill="black"/>
<path d="M308.228 432.841H223.598C207.441 432.841 194.252 419.918 193.924 403.764L190.769 275.144C190.523 263.034 200.273 253.085 212.384 253.085H265.436C276.429 253.085 285.672 261.334 286.916 272.256L308.228 432.841Z" fill="black"/>
<path d="M344.89 416.626H262.072V432.841H352.255C354.59 432.841 356.481 430.949 356.481 428.615V428.217C356.481 421.815 351.292 416.626 344.89 416.626Z" fill="black"/>
</g>
<path d="M284.674 246.044C284.674 246.044 296.507 261.494 288.857 292.257C281.205 323.021 241.693 306.322 239.297 278.596C236.473 245.912 273.201 268.449 279.714 239.381L284.674 246.044Z" fill="#263238"/>
<path d="M276.085 236.872C270.954 240.501 268.916 245.758 274.603 250.907C280.288 256.056 288.381 255.893 290.825 253.776C293.268 251.658 292.798 240.918 292.798 240.918L276.085 236.872Z" fill="#407BFF"/>
<path opacity="0.8" d="M276.085 236.872C270.954 240.501 268.916 245.758 274.603 250.907C280.288 256.056 288.381 255.893 290.825 253.776C293.268 251.658 292.798 240.918 292.798 240.918L276.085 236.872Z" fill="white"/>
<path d="M340.95 305.348C341.089 305.971 341.337 306.95 341.55 307.768L342.229 310.384C342.698 312.137 343.214 313.896 343.75 315.654C344.792 319.183 345.93 322.707 347.12 326.226C348.329 329.738 349.544 333.262 350.882 336.748C351.541 338.495 352.187 340.249 352.882 341.987L353.692 344.07C353.816 344.36 354.019 344.698 354.324 345.068C355.546 346.612 358.325 348.309 361.379 349.523C364.451 350.822 367.892 351.783 371.407 352.635C374.934 353.461 378.567 354.144 382.243 354.704C385.896 355.323 389.686 355.735 393.31 356.132L393.441 363.614C385.457 364.396 377.634 364.485 369.551 363.61C365.514 363.181 361.452 362.452 357.282 361.232C355.204 360.596 353.099 359.81 350.968 358.743C348.848 357.655 346.654 356.323 344.616 354.278C343.604 353.258 342.638 352.06 341.829 350.675C341.622 350.337 341.442 349.966 341.256 349.606L340.89 348.86L340.247 347.535C339.384 345.771 338.526 344.002 337.727 342.205C336.112 338.619 334.544 335.003 333.135 331.311C331.69 327.635 330.379 323.896 329.184 320.095C328.607 318.186 328.05 316.268 327.532 314.318L326.778 311.368C326.548 310.323 326.345 309.439 326.112 308.183L340.95 305.348Z" fill="#E58A7B"/>
<path d="M336.221 289.585C342.189 291.105 346.363 315.661 346.363 315.661L329.919 326.844C329.919 326.844 314.152 302.071 318.743 295.51C323.523 288.677 327.514 287.367 336.221 289.585Z" fill="#407BFF"/>
<path opacity="0.5" d="M336.221 289.585C342.189 291.105 346.363 315.661 346.363 315.661L329.919 326.844C329.919 326.844 314.152 302.071 318.743 295.51C323.523 288.677 327.514 287.367 336.221 289.585Z" fill="white"/>
<path opacity="0.2" d="M334.08 295.716L319.784 307.047C323.167 316.221 329.918 326.842 329.918 326.842L341.319 319.088L334.08 295.716Z" fill="#407BFF"/>
<path d="M336.221 289.585C336.221 289.585 343.118 292.014 329.301 376.97C305.967 376.97 281.852 376.97 270.498 376.97C271.485 353.038 271.513 338.281 260.074 289.164C260.074 289.164 272.395 286.485 285.046 285.875C294.941 285.398 303.048 285.082 311.747 285.876C323.216 286.923 336.221 289.585 336.221 289.585Z" fill="#407BFF"/>
<path opacity="0.5" d="M336.221 289.585C336.221 289.585 343.118 292.014 329.301 376.97C305.967 376.97 281.852 376.97 270.498 376.97C271.485 353.038 271.513 338.281 260.074 289.164C260.074 289.164 272.395 286.485 285.046 285.875C294.941 285.398 303.048 285.082 311.747 285.876C323.216 286.923 336.221 289.585 336.221 289.585Z" fill="white"/>
<path d="M391.176 356.035L401.446 345.625L402.796 360.287C402.796 360.287 395.097 365.497 389.77 362.697L391.176 356.035Z" fill="#E58A7B"/>
<path d="M413.517 344.07L413.984 356.406L402.795 360.287L401.446 345.625L413.517 344.07Z" fill="#E58A7B"/>
<path d="M395.963 553.035H410.441L412.67 519.506H398.192L395.963 553.035Z" fill="#E58A7B"/>
<path d="M339.939 553.035H354.417L359.074 519.506H344.594L339.939 553.035Z" fill="#E58A7B"/>
<path d="M355.315 551.359H339.05C338.458 551.359 337.978 551.769 337.894 552.347L336.041 565.217C335.849 566.552 336.998 567.815 338.363 567.793C344.034 567.695 346.767 567.362 353.92 567.362C358.32 567.362 369.607 567.82 375.684 567.82C381.628 567.82 382.085 561.811 379.554 561.267C368.208 558.827 361.558 555.461 357.736 552.251C357.047 551.67 356.181 551.359 355.315 551.359Z" fill="#263238"/>
<path d="M411.569 551.359H395.302C394.71 551.359 394.23 551.769 394.146 552.347L392.294 565.217C392.101 566.552 393.25 567.815 394.615 567.793C400.286 567.695 403.019 567.362 410.172 567.362C414.572 567.362 423.676 567.82 429.752 567.82C435.696 567.82 436.153 561.811 433.623 561.267C422.277 558.827 417.812 555.461 413.989 552.251C413.299 551.67 412.434 551.359 411.569 551.359Z" fill="#263238"/>
<path d="M324.677 226.509C329.894 226.838 332.536 252.899 317.263 251.43C301.992 249.96 324.677 226.509 324.677 226.509Z" fill="#263238"/>
<path d="M412.667 519.515L411.52 536.797H397.036L398.182 519.515H412.667Z" fill="#CF6F64"/>
<path d="M344.59 519.515H359.075L356.668 536.797H342.183L344.59 519.515Z" fill="#CF6F64"/>
<path opacity="0.2" d="M265.956 316.416C267.32 323.543 268.336 329.695 269.088 335.235L272.526 308.634L265.956 316.416Z" fill="#407BFF"/>
<path d="M287.692 255.809C289.376 264.401 291.058 280.143 285.046 285.875C285.046 285.875 287.394 294.59 303.359 294.59C320.913 294.59 311.748 285.876 311.748 285.876C302.169 283.588 302.415 276.48 304.084 269.804L287.692 255.809Z" fill="#E58A7B"/>
<path d="M300.189 296.457L305.536 294.54L304.819 293.074L300.189 296.457Z" fill="#263238"/>
<path d="M310.555 295.339L305.536 294.54L306.617 292.9L310.555 295.339Z" fill="#263238"/>
<path d="M286.989 281.819L283.363 285.288C283.129 285.512 283.112 285.881 283.325 286.124L298.584 303.572C298.584 303.572 299.188 297.753 304.819 293.073C292.153 288.279 288.849 283.314 287.728 281.866C287.547 281.634 287.202 281.614 286.989 281.819Z" fill="#407BFF"/>
<path d="M308.877 284.493L313.383 285.723C313.66 285.798 313.873 286.009 313.944 286.286C314.395 288.033 315.794 294.771 313.249 303.57C312.596 301.2 310.451 295.527 306.617 292.898C310.768 290.026 309.102 286.305 308.515 284.901C308.415 284.667 308.629 284.426 308.877 284.493Z" fill="#407BFF"/>
<path d="M294.373 261.521L304.076 269.797C303.675 271.377 303.364 272.98 303.253 274.537C299.593 274.008 294.565 269.991 294.177 266.159C293.982 264.248 294.063 262.41 294.373 261.521Z" fill="#CF6F64"/>
<path d="M286.681 233.173C285.022 247.446 284.015 253.453 289.849 261.974C298.626 274.793 316.52 273.709 322.41 260.219C327.712 248.077 329.534 226.775 316.719 218.683C304.094 210.713 288.34 218.899 286.681 233.173Z" fill="#E58A7B"/>
<path d="M319.382 209.612C295.782 200.293 278.059 210.8 274.4 225.734C268.716 248.929 287.021 250.559 287.021 250.559L289.306 244.634C292.611 246.615 301.908 245.738 299.009 228.523C297.368 218.775 309.706 232.347 325.351 230.838C329.559 230.434 335.247 215.877 319.382 209.612Z" fill="#263238"/>
<path d="M327.415 215.349C324.301 210.566 317.955 206.481 304.808 204.547C304.808 204.547 311.636 206.083 313.857 211.083C316.079 216.08 331.157 221.094 327.415 215.349Z" fill="#263238"/>
<path d="M282.21 245.52C281.976 248.489 283.136 251.289 284.756 253.125C287.192 255.887 290.406 254.19 291.4 250.845C292.295 247.834 292.106 242.77 288.857 241.239C285.655 239.73 282.477 242.123 282.21 245.52Z" fill="#E58A7B"/>
<path d="M329.303 376.97C329.303 376.97 426.381 385.995 425.431 430.148C424.445 476.074 414.616 533.451 414.616 533.451H394.565C394.565 533.451 392.849 484.896 392.273 439.683C391.972 416.125 298.162 411.408 298.162 411.408L286.052 376.972L329.303 376.97Z" fill="#263238"/>
<path d="M313.774 376.97C313.774 376.97 376.514 397.781 378.097 423.527C381.01 470.943 360.165 533.451 360.165 533.451H340.421C340.421 533.451 341.538 491.975 343.899 449.019C346.866 395.043 251.632 448.271 270.499 376.972L313.774 376.97Z" fill="#263238"/>
<path d="M307.39 240.95C307.184 242.099 307.627 243.141 308.378 243.274C309.13 243.409 309.905 242.585 310.111 241.437C310.317 240.287 309.875 239.246 309.123 239.112C308.371 238.977 307.596 239.8 307.39 240.95Z" fill="#263238"/>
<path d="M320.384 243.274C320.178 244.424 320.621 245.465 321.373 245.599C322.124 245.734 322.9 244.91 323.106 243.761C323.312 242.612 322.869 241.57 322.117 241.437C321.366 241.302 320.59 242.126 320.384 243.274Z" fill="#263238"/>
<path d="M321.773 241.441L324.677 241.139C324.677 241.139 322.875 243.042 321.773 241.441Z" fill="#263238"/>
<path d="M316.597 244.636C316.597 244.636 317.661 249.934 319.382 252.706C317.611 253.851 315.146 252.743 315.146 252.743L316.597 244.636Z" fill="#DF5753"/>
<path d="M310.351 256.426C310.338 256.426 310.326 256.424 310.312 256.422C304.969 255.465 303.123 251.242 303.105 251.199C303.058 251.088 303.111 250.96 303.221 250.912C303.334 250.866 303.462 250.918 303.508 251.028C303.524 251.068 305.287 255.077 310.388 255.99C310.507 256.012 310.586 256.125 310.565 256.245C310.547 256.352 310.455 256.426 310.351 256.426Z" fill="#263238"/>
<path d="M304.346 235.822C304.227 235.822 304.11 235.774 304.024 235.681C303.86 235.504 303.871 235.227 304.049 235.063C306.738 232.58 309.69 233.287 309.815 233.319C310.049 233.379 310.191 233.614 310.131 233.848C310.074 234.082 309.836 234.226 309.602 234.166C309.493 234.14 306.971 233.553 304.642 235.706C304.557 235.783 304.451 235.822 304.346 235.822Z" fill="#263238"/>
<path d="M327.475 238.106C327.307 238.106 327.145 238.007 327.074 237.843C325.801 234.915 323.182 234.442 323.156 234.438C322.918 234.397 322.756 234.172 322.797 233.934C322.836 233.696 323.065 233.534 323.3 233.575C323.427 233.597 326.416 234.136 327.876 237.493C327.972 237.715 327.872 237.972 327.649 238.07C327.593 238.093 327.534 238.106 327.475 238.106Z" fill="#263238"/>
<path d="M268.859 310.113C267.598 314.243 266.233 318.522 265.029 322.752C263.762 326.984 262.529 331.218 261.433 335.453C260.356 339.687 259.292 343.906 258.509 348.045C258.13 350.106 257.783 352.147 257.583 354.066C257.476 355.031 257.426 355.936 257.403 356.778C257.399 356.962 257.373 356.725 257.264 356.452C257.147 356.192 256.895 355.723 256.579 355.442C255.869 354.818 255.599 354.934 255.924 355.031C256.219 355.141 256.924 355.215 257.694 355.208C259.277 355.202 261.238 354.903 263.195 354.498C267.168 353.692 271.309 352.396 275.432 351.011C283.665 348.161 292.007 344.826 300.145 341.36L303.735 347.925C295.983 352.951 288.076 357.468 279.608 361.391C275.368 363.35 271.024 365.142 266.267 366.582C263.858 367.264 261.389 367.889 258.47 368.16C256.995 368.279 255.429 368.344 253.507 368.036C252.534 367.862 251.511 367.638 250.35 367.122C249.211 366.615 247.964 365.882 246.869 364.74C244.579 362.509 243.781 359.14 243.766 357.219C243.695 355.808 243.688 354.46 243.739 353.177C243.835 350.6 244.073 348.168 244.401 345.783C245.06 341.026 245.928 336.437 246.988 331.92C248.034 327.403 249.165 322.94 250.403 318.517C251.71 314.096 252.978 309.756 254.533 305.328L268.859 310.113Z" fill="#E58A7B"/>
<path d="M360.278 553.789C358.95 553.789 357.491 553.512 356.472 553.271C356.379 553.248 356.306 553.172 356.288 553.076C356.271 552.982 356.313 552.884 356.394 552.831C356.885 552.51 361.228 549.699 362.875 550.437C363.223 550.594 363.439 550.902 363.499 551.324C363.602 552.056 363.421 552.639 362.961 553.058C362.366 553.603 361.366 553.789 360.278 553.789ZM357.151 552.926C359.825 553.491 361.855 553.416 362.636 552.701C362.972 552.393 363.099 551.966 363.018 551.393C362.982 551.135 362.874 550.97 362.676 550.881C361.618 550.404 358.68 551.985 357.151 552.926Z" fill="#407BFF"/>
<path d="M356.528 553.277C356.486 553.277 356.443 553.266 356.405 553.245C356.33 553.202 356.285 553.121 356.285 553.036C356.285 552.861 356.303 548.736 357.844 547.373C358.238 547.023 358.687 546.876 359.217 546.939C359.973 547.031 360.215 547.467 360.285 547.816C360.585 549.317 358.167 552.385 356.647 553.246C356.61 553.267 356.568 553.277 356.528 553.277ZM358.99 547.408C358.684 547.408 358.414 547.515 358.166 547.734C357.066 548.707 356.834 551.473 356.784 552.574C358.134 551.562 360.035 549.035 359.81 547.909C359.775 547.728 359.667 547.481 359.158 547.418C359.101 547.412 359.044 547.408 358.99 547.408Z" fill="#407BFF"/>
<path d="M417.014 553.792C415.427 553.792 413.694 553.518 412.466 553.273C412.366 553.252 412.288 553.171 412.273 553.069C412.259 552.968 412.309 552.868 412.402 552.82C413.05 552.483 418.773 549.56 420.504 550.504C420.817 550.675 421.001 550.963 421.034 551.338C421.093 551.989 420.895 552.522 420.447 552.925C419.724 553.575 418.427 553.792 417.014 553.792ZM413.267 552.927C415.14 553.252 418.849 553.713 420.125 552.563C420.456 552.264 420.597 551.878 420.552 551.38C420.533 551.167 420.445 551.022 420.274 550.929C419.137 550.308 415.286 551.942 413.267 552.927Z" fill="#407BFF"/>
<path d="M412.515 553.277C412.466 553.277 412.418 553.262 412.375 553.234C412.305 553.184 412.266 553.101 412.273 553.017C412.287 552.852 412.617 548.996 414.404 547.507C414.94 547.062 415.55 546.869 416.228 546.939C417.116 547.028 417.369 547.469 417.426 547.823C417.686 549.422 414.316 552.489 412.613 553.257C412.582 553.27 412.549 553.277 412.515 553.277ZM415.962 547.408C415.502 547.408 415.093 547.563 414.715 547.879C413.416 548.96 412.945 551.572 412.808 552.614C414.639 551.588 417.126 548.973 416.95 547.9C416.933 547.798 416.883 547.49 416.18 547.418C416.107 547.412 416.033 547.408 415.962 547.408Z" fill="#407BFF"/>
<path d="M299.874 341.52L313.609 338.04L307.066 351.229C307.066 351.229 297.777 351.626 294.712 346.447L299.874 341.52Z" fill="#E58A7B"/>
<path d="M324.702 343.051L318.626 353.798L307.066 351.231L313.608 338.042L324.702 343.051Z" fill="#E58A7B"/>
<path d="M308.781 239.116L311.684 238.814C311.684 238.814 309.88 240.717 308.781 239.116Z" fill="#263238"/>
<path d="M269.619 373.52L269.15 378.783C268.944 379.191 269.429 379.607 270.108 379.607H329.594C330.124 379.607 330.563 379.348 330.596 379.014L331.126 373.751C331.163 373.386 330.703 373.077 330.124 373.077H270.577C270.139 373.078 269.752 373.256 269.619 373.52Z" fill="#407BFF"/>
<path d="M277.616 380.177H276.021C275.704 380.177 275.462 380.013 275.484 379.814L276.231 372.975C276.254 372.775 276.531 372.612 276.848 372.612H278.443C278.761 372.612 279.003 372.776 278.981 372.975L278.233 379.814C278.212 380.015 277.934 380.177 277.616 380.177Z" fill="#263238"/>
<path d="M325.111 380.177H323.516C323.199 380.177 322.957 380.013 322.979 379.814L323.726 372.975C323.749 372.775 324.026 372.612 324.343 372.612H325.938C326.256 372.612 326.498 372.776 326.476 372.975L325.728 379.814C325.706 380.015 325.429 380.177 325.111 380.177Z" fill="#263238"/>
<path d="M301.364 380.177H299.769C299.451 380.177 299.209 380.013 299.231 379.814L299.979 372.975C300.001 372.775 300.278 372.612 300.596 372.612H302.191C302.508 372.612 302.75 372.776 302.728 372.975L301.981 379.814C301.958 380.015 301.681 380.177 301.364 380.177Z" fill="#263238"/>
<path d="M260.076 289.166C254.185 290.957 247.109 311.243 247.109 311.243L266.106 329.788C266.106 329.788 278.301 310.65 275.826 303.036C273.247 295.105 266.798 287.121 260.076 289.166Z" fill="#407BFF"/>
<path opacity="0.5" d="M260.076 289.166C254.185 290.957 247.109 311.243 247.109 311.243L266.106 329.788C266.106 329.788 278.301 310.65 275.826 303.036C273.247 295.105 266.798 287.121 260.076 289.166Z" fill="white"/>
<path d="M575.809 362.509H465.062V577.926H575.809V362.509Z" fill="#407BFF"/>
<path opacity="0.6" d="M575.809 362.509H465.062V577.926H575.809V362.509Z" fill="white"/>
<path d="M361.273 362.509H250.525V577.926H361.273V362.509Z" fill="#407BFF"/>
<path opacity="0.6" d="M361.273 362.509H250.525V577.926H361.273V362.509Z" fill="white"/>
<path d="M579.959 362.509H570.826V577.926H579.959V362.509Z" fill="#407BFF"/>
<path opacity="0.3" d="M579.959 362.509H570.826V577.926H579.959V362.509Z" fill="black"/>
<path d="M362.592 378.666H582.787V362.509H362.592V378.666Z" fill="#407BFF"/>
<path opacity="0.3" d="M362.592 378.666H582.787V362.509H362.592V378.666Z" fill="black"/>
<path d="M365.422 362.509H356.289V577.926H365.422V362.509Z" fill="#407BFF"/>
<path opacity="0.3" d="M365.422 362.509H356.289V577.926H365.422V362.509Z" fill="black"/>
<path d="M362.058 414.034H575.392V367.494H362.058V414.034Z" fill="#407BFF"/>
<path opacity="0.3" d="M362.058 414.034H575.392V367.494H362.058V414.034Z" fill="black"/>
<path d="M575.869 584.176H514.38C505.702 584.176 498.641 577.116 498.641 568.436V374.509C498.641 366.825 492.391 360.575 484.707 360.575H466.32V359.183H484.708C493.159 359.183 500.034 366.058 500.034 374.509V568.436C500.034 576.348 506.471 582.784 514.381 582.784H575.87C578.515 582.784 580.041 581.024 580.585 579.378C581.131 577.73 580.957 575.408 578.831 573.831L579.661 572.713C581.902 574.377 582.783 577.165 581.907 579.815C581.029 582.466 578.66 584.176 575.869 584.176Z" fill="#407BFF"/>
<path opacity="0.3" d="M575.869 584.176H514.38C505.702 584.176 498.641 577.116 498.641 568.436V374.509C498.641 366.825 492.391 360.575 484.707 360.575H466.32V359.183H484.708C493.159 359.183 500.034 366.058 500.034 374.509V568.436C500.034 576.348 506.471 582.784 514.381 582.784H575.87C578.515 582.784 580.041 581.024 580.585 579.378C581.131 577.73 580.957 575.408 578.831 573.831L579.661 572.713C581.902 574.377 582.783 577.165 581.907 579.815C581.029 582.466 578.66 584.176 575.869 584.176Z" fill="black"/>
<path d="M584.831 426.068H583.439V452.981H584.831V426.068Z" fill="#407BFF"/>
<path opacity="0.3" d="M584.831 426.068H583.439V452.981H584.831V426.068Z" fill="black"/>
<path d="M584.831 410.177H583.439V417.252H584.831V410.177Z" fill="#407BFF"/>
<path opacity="0.3" d="M584.831 410.177H583.439V417.252H584.831V410.177Z" fill="black"/>
<path d="M482.879 298.197H379.682L364.726 359.136H467.922L482.879 298.197Z" fill="#407BFF"/>
<path opacity="0.4" d="M482.879 298.197H379.682L364.726 359.136H467.922L482.879 298.197Z" fill="white"/>
<path d="M367.897 359.136L367.48 362.505H326.975L327.393 359.136H367.897Z" fill="#407BFF"/>
<path opacity="0.4" d="M367.897 359.136L367.48 362.505H326.975L327.393 359.136H367.897Z" fill="white"/>
<path d="M471.099 359.136L470.681 362.505H367.479L367.897 359.136H471.099Z" fill="#407BFF"/>
<path opacity="0.5" d="M471.099 359.136L470.681 362.505H367.479L367.897 359.136H471.099Z" fill="black"/>
<path d="M486.054 298.197H382.858L367.903 359.136H471.099L486.054 298.197Z" fill="#407BFF"/>
<path opacity="0.5" d="M486.054 298.197H382.858L367.903 359.136H471.099L486.054 298.197Z" fill="black"/>
<path d="M525.914 347.151C525.914 347.151 510.728 320.972 531.797 300.132C531.797 300.132 537.297 303.716 537.212 308.534C537.127 313.352 531.324 314.571 532.571 318.593C533.818 322.614 539.298 326.559 535.701 329.883C532.105 333.207 536.281 336.167 536.038 340.238C535.793 344.313 525.914 347.151 525.914 347.151Z" fill="#407BFF"/>
<path d="M527.067 349.544C527.067 349.544 533.224 319.912 506.659 306.779C506.659 306.779 502.571 311.914 504.17 316.46C505.769 321.006 511.662 320.333 511.747 324.542C511.831 328.751 507.874 334.223 512.335 336.243C516.797 338.263 513.766 342.389 515.282 346.176C516.797 349.965 527.067 349.544 527.067 349.544Z" fill="#407BFF"/>
<path opacity="0.5" d="M527.067 349.544C527.067 349.544 533.224 319.912 506.659 306.779C506.659 306.779 502.571 311.914 504.17 316.46C505.769 321.006 511.662 320.333 511.747 324.542C511.831 328.751 507.874 334.223 512.335 336.243C516.797 338.263 513.766 342.389 515.282 346.176C516.797 349.965 527.067 349.544 527.067 349.544Z" fill="black"/>
<path d="M503.798 342.978C503.798 342.978 504.304 362.507 523.665 362.507C543.028 362.507 543.532 342.978 543.532 342.978H503.798Z" fill="#407BFF"/>
<path opacity="0.5" d="M503.798 342.978C503.798 342.978 504.304 362.507 523.665 362.507C543.028 362.507 543.532 342.978 543.532 342.978H503.798Z" fill="black"/>
<path d="M399.71 215.284L383.172 193.922L366.633 215.284H374.416V242.947H391.927V215.284H399.71Z" fill="#407BFF"/>
<path d="M448.232 240.414C448.232 230.081 452.351 220.157 459.652 212.858C466.953 205.557 476.877 201.438 487.21 201.438V211.606C471.303 211.606 458.402 224.507 458.402 240.414H448.232Z" fill="#407BFF"/>
<path d="M448.232 240.414H458.401C458.401 256.334 471.302 269.221 487.208 269.221C492.456 269.221 497.377 267.821 501.606 265.36L506.691 274.17C488.174 284.855 464.153 278.411 453.454 259.895C450.039 253.982 448.232 247.253 448.232 240.414Z" fill="#407BFF"/>
<path opacity="0.5" d="M448.232 240.414H458.401C458.401 256.334 471.302 269.221 487.208 269.221C492.456 269.221 497.377 267.821 501.606 265.36L506.691 274.17C488.174 284.855 464.153 278.411 453.454 259.895C450.039 253.982 448.232 247.253 448.232 240.414Z" fill="white"/>
<path d="M487.208 211.606V201.438C508.729 201.438 526.184 218.893 526.184 240.414C526.184 254.838 518.341 267.439 506.69 274.17L501.605 265.36C510.224 260.397 516.015 251.085 516.015 240.414C516.016 224.507 503.113 211.606 487.208 211.606Z" fill="#407BFF"/>
<path opacity="0.7" d="M487.208 211.606V201.438C508.729 201.438 526.184 218.893 526.184 240.414C526.184 254.838 518.341 267.439 506.69 274.17L501.605 265.36C510.224 260.397 516.015 251.085 516.015 240.414C516.016 224.507 503.113 211.606 487.208 211.606Z" fill="black"/>
<path d="M450.602 144.801H415.09C412.455 144.801 410.32 146.937 410.32 149.572V215.203C410.32 217.838 412.455 219.974 415.09 219.974H460.54C463.175 219.974 465.311 217.838 465.311 215.203V159.509L450.602 144.801Z" fill="#263238"/>
<path d="M448.519 213.405H418.971C417.825 213.405 416.889 212.468 416.889 211.321C416.889 210.175 417.825 209.237 418.971 209.237H448.519C449.665 209.237 450.602 210.175 450.602 211.321C450.602 212.468 449.665 213.405 448.519 213.405Z" fill="#407BFF"/>
<path d="M434.599 155.535H418.971C417.825 155.535 416.889 154.598 416.889 153.453C416.889 152.307 417.825 151.369 418.971 151.369H434.599C435.745 151.369 436.682 152.307 436.682 153.453C436.683 154.598 435.745 155.535 434.599 155.535Z" fill="#407BFF"/>
<path d="M444.794 163.802H418.971C417.825 163.802 416.889 162.864 416.889 161.718C416.889 160.573 417.825 159.636 418.971 159.636H444.794C445.94 159.636 446.877 160.573 446.877 161.718C446.878 162.865 445.94 163.802 444.794 163.802Z" fill="#407BFF"/>
<path d="M456.66 172.069H418.973C417.827 172.069 416.89 171.132 416.89 169.987C416.89 168.841 417.827 167.904 418.973 167.904H456.66C457.805 167.904 458.742 168.841 458.742 169.987C458.742 171.132 457.805 172.069 456.66 172.069Z" fill="#407BFF"/>
<path d="M456.659 180.336H434.749C433.604 180.336 432.666 179.4 432.666 178.253C432.666 177.107 433.602 176.169 434.749 176.169H456.659C457.805 176.169 458.742 177.107 458.742 178.253C458.742 179.4 457.805 180.336 456.659 180.336Z" fill="#407BFF"/>
<path d="M424.702 180.336H418.971C417.825 180.336 416.889 179.4 416.889 178.253C416.889 177.107 417.825 176.169 418.971 176.169H424.702C425.848 176.169 426.784 177.107 426.784 178.253C426.786 179.4 425.848 180.336 424.702 180.336Z" fill="#407BFF"/>
<path d="M456.66 188.603H418.973C417.827 188.603 416.89 187.667 416.89 186.521C416.89 185.375 417.827 184.437 418.973 184.437H456.66C457.805 184.437 458.742 185.374 458.742 186.521C458.742 187.667 457.805 188.603 456.66 188.603Z" fill="#407BFF"/>
<path d="M442.117 196.871H418.973C417.827 196.871 416.89 195.934 416.89 194.787C416.89 193.641 417.827 192.703 418.973 192.703H442.117C443.263 192.703 444.2 193.641 444.2 194.787C444.2 195.934 443.263 196.871 442.117 196.871Z" fill="#407BFF"/>
<path d="M456.66 196.871H450.483C449.338 196.871 448.401 195.934 448.401 194.787C448.401 193.641 449.338 192.703 450.483 192.703H456.66C457.805 192.703 458.742 193.641 458.742 194.787C458.742 195.934 457.805 196.871 456.66 196.871Z" fill="#407BFF"/>
<path d="M456.66 205.138H418.973C417.827 205.138 416.89 204.201 416.89 203.055C416.89 201.91 417.827 200.971 418.973 200.971H456.66C457.805 200.971 458.742 201.908 458.742 203.055C458.742 204.201 457.805 205.138 456.66 205.138Z" fill="#407BFF"/>
<g opacity="0.5">
<path d="M448.519 213.405H418.971C417.825 213.405 416.889 212.468 416.889 211.321C416.889 210.175 417.825 209.237 418.971 209.237H448.519C449.665 209.237 450.602 210.175 450.602 211.321C450.602 212.468 449.665 213.405 448.519 213.405Z" fill="white"/>
</g>
<g opacity="0.5">
<path d="M434.599 155.535H418.971C417.825 155.535 416.889 154.598 416.889 153.453C416.889 152.307 417.825 151.369 418.971 151.369H434.599C435.745 151.369 436.682 152.307 436.682 153.453C436.683 154.598 435.745 155.535 434.599 155.535Z" fill="white"/>
</g>
<g opacity="0.5">
<path d="M444.794 163.802H418.971C417.825 163.802 416.889 162.864 416.889 161.718C416.889 160.573 417.825 159.636 418.971 159.636H444.794C445.94 159.636 446.877 160.573 446.877 161.718C446.878 162.865 445.94 163.802 444.794 163.802Z" fill="white"/>
</g>
<g opacity="0.5">
<path d="M456.66 172.069H418.973C417.827 172.069 416.89 171.132 416.89 169.987C416.89 168.841 417.827 167.904 418.973 167.904H456.66C457.805 167.904 458.742 168.841 458.742 169.987C458.742 171.132 457.805 172.069 456.66 172.069Z" fill="white"/>
</g>
<g opacity="0.5">
<path d="M456.659 180.336H434.749C433.604 180.336 432.666 179.4 432.666 178.253C432.666 177.107 433.602 176.169 434.749 176.169H456.659C457.805 176.169 458.742 177.107 458.742 178.253C458.742 179.4 457.805 180.336 456.659 180.336Z" fill="white"/>
</g>
<g opacity="0.5">
<path d="M424.702 180.336H418.971C417.825 180.336 416.889 179.4 416.889 178.253C416.889 177.107 417.825 176.169 418.971 176.169H424.702C425.848 176.169 426.784 177.107 426.784 178.253C426.786 179.4 425.848 180.336 424.702 180.336Z" fill="white"/>
</g>
<g opacity="0.5">
<path d="M456.66 188.603H418.973C417.827 188.603 416.89 187.667 416.89 186.521C416.89 185.375 417.827 184.437 418.973 184.437H456.66C457.805 184.437 458.742 185.374 458.742 186.521C458.742 187.667 457.805 188.603 456.66 188.603Z" fill="white"/>
</g>
<g opacity="0.5">
<path d="M442.117 196.871H418.973C417.827 196.871 416.89 195.934 416.89 194.787C416.89 193.641 417.827 192.703 418.973 192.703H442.117C443.263 192.703 444.2 193.641 444.2 194.787C444.2 195.934 443.263 196.871 442.117 196.871Z" fill="white"/>
</g>
<g opacity="0.5">
<path d="M456.66 196.871H450.483C449.338 196.871 448.401 195.934 448.401 194.787C448.401 193.641 449.338 192.703 450.483 192.703H456.66C457.805 192.703 458.742 193.641 458.742 194.787C458.742 195.934 457.805 196.871 456.66 196.871Z" fill="white"/>
</g>
<g opacity="0.5">
<path d="M456.66 205.138H418.973C417.827 205.138 416.89 204.201 416.89 203.055C416.89 201.91 417.827 200.971 418.973 200.971H456.66C457.805 200.971 458.742 201.908 458.742 203.055C458.742 204.201 457.805 205.138 456.66 205.138Z" fill="white"/>
</g>
<path d="M450.602 144.801V154.74C450.602 157.375 452.74 159.511 455.375 159.511H465.309L450.602 144.801Z" fill="#407BFF"/>
<path opacity="0.5" d="M450.602 144.801V154.74C450.602 157.375 452.74 159.511 455.375 159.511H465.309L450.602 144.801Z" fill="white"/>
</svg>
